<?xml version="1.0" encoding="utf-8"?>
<!-- Generator: Adobe Illustrator 23.1.1, SVG Export Plug-In . SVG Version: 6.00 Build 0)  -->
<svg version="1.1" id="Layer_1" xmlns="http://www.w3.org/2000/svg" xmlns:xlink="http://www.w3.org/1999/xlink" x="0px" y="0px"
	 viewBox="0 0 570.4 570.4" style="enable-background:new 0 0 570.4 570.4;" xml:space="preserve">
<style type="text/css">
	.st0{fill:#07B8D1;stroke:#04B9D2;stroke-width:12;stroke-miterlimit:10;}
	.st1{fill:none;stroke:#FDF59F;stroke-miterlimit:10;}
	.st2{fill:none;stroke:#04B9D2;stroke-miterlimit:10;}
	.st3{fill:none;stroke:#DF1F26;stroke-miterlimit:10;}
	.st4{fill:#DE2227;stroke:#DF1F26;stroke-miterlimit:10;}
	.st5{fill:#FDF59F;}
	.st6{fill:#04B9D2;}
	.st7{fill:none;stroke:#092123;stroke-width:2;stroke-miterlimit:10;}
	.st8{fill:#092123;}
</style>
<circle class="st0" cx="285.2" cy="285.2" r="279.2"/>
<g>
	<g>
		<path d="M374.4,97.4c0,7.4,0,14.8,0,22.2c0,4.9-0.1,9.9-0.2,14.8c-0.1,5.2-0.2,10.3-0.2,15.5c-0.1,5-0.2,10.1-0.2,15.1
			c-0.1,5-0.2,10.1-0.2,15.1c-0.1,5-0.2,10.1-0.2,15.1c-0.1,5.2-0.2,10.3-0.2,15.5c-0.1,4.9-0.2,9.9-0.2,14.8
			c-0.1,5.2-0.2,10.3-0.2,15.5c-0.1,5-0.2,9.9-0.2,14.9c-0.1,5.1-0.1,10.3-0.2,15.4c0,1.8-0.2,3.6-0.2,5.5c0,3.7,2.5,6.2,6.2,6.4
			c1.2,0,2.3,0,3.5,0c3.8,0,6.2-2.2,6.4-6c0-0.2,0-0.3,0-0.5c0.1-7.2,0.2-14.4,0.2-21.6c0.1-6.9,0.2-13.8,0.2-20.6
			c0.1-5,0.2-9.9,0.2-14.9c0.1-5.2,0.2-10.4,0.2-15.6c0.1-4.9,0.2-9.9,0.2-14.8c0.1-5.2,0.2-10.3,0.2-15.5c0.1-5,0.2-10.1,0.2-15.1
			c0.1-5,0.2-10.1,0.2-15.1c0.1-5,0.2-10.1,0.2-15.1c0.1-5.1,0.2-10.2,0.2-15.3c0.1-5,0.1-10,0.2-15c0-1.5,0.1-3,0.4-4.4
			c0.6-3.3,3.8-5.3,7.4-4.9c1,0.1,2,0.3,3.1,0.5c3,0.5,5.2,3.1,5.2,6.1c0,8.9-0.1,17.8-0.2,26.7c0,3.2-0.2,6.4-0.2,9.7
			c-0.1,6.8-0.2,13.6-0.2,20.4c-0.1,5-0.2,10-0.2,15c-0.1,5.1-0.2,10.2-0.2,15.3c-0.1,5-0.2,10.1-0.2,15.1c-0.1,5-0.2,10.1-0.2,15.1
			c-0.1,5-0.2,10.1-0.2,15.1c-0.1,5.1-0.2,10.3-0.2,15.4c-0.1,5-0.2,10-0.2,15c-0.1,5.1-0.1,10.2-0.2,15.3c0,1.6-0.3,3.2-0.2,4.8
			c0.1,2.6,1.3,4.6,3.8,5.6c2.2,0.9,4.2,0.4,6-1.2c1.7-1.5,1.8-3.5,2-5.6c0-0.1,0-0.2,0-0.4c0.1-8.8,0.2-17.6,0.2-26.4
			c0.1-5.6,0.2-11.2,0.2-16.8c0.1-5,0.2-9.9,0.2-14.9c0.1-5.1,0.2-10.3,0.2-15.4c0.1-5,0.2-10,0.2-15c0.1-5.2,0.2-10.3,0.2-15.5
			c0.1-5,0.2-9.9,0.2-14.9c0.1-5.1,0.2-10.3,0.2-15.4c0.1-5,0.2-9.9,0.2-14.9c0.1-5.1,0.2-10.3,0.2-15.4c0.1-4.1,0.2-8.3,0.2-12.4
			c0.1-3.8,2.8-6.7,6.3-6.8c5-0.1,8.1,2.3,8.1,6.6c0,6.6-0.3,13.3-0.4,19.9c0,0.6,0,1.1,0,1.7c-0.1,8.9-0.2,17.9-0.2,26.8
			c-0.1,4.9-0.2,9.8-0.2,14.7c-0.1,5.2-0.2,10.5-0.2,15.7c-0.1,4.8-0.2,9.6-0.2,14.4c-0.1,5.3-0.2,10.6-0.2,15.9
			c-0.1,4.9-0.2,9.9-0.2,14.8c-0.1,5.2-0.2,10.3-0.2,15.5c-0.1,5-0.2,10-0.2,15c-0.1,5.1-0.2,10.2-0.2,15.3c-0.1,5-0.2,10-0.2,15
			c-0.1,5.2-0.2,10.3-0.2,15.5c-0.1,5-0.2,9.9-0.2,14.9c-0.1,4.8-0.1,9.6-0.3,14.4c-0.4,10.6-3.7,20.2-10.7,28.4
			c-7.6,8.9-17.2,14.5-28.7,16c-9.1,1.2-17.8,3.6-26.8,5.4c-1,0.2-2.1,0.6-3,1.1c-5.5,2.6-10.9,5.3-16.4,7.9
			c-1.4,0.7-2.4,1.6-3.2,2.9c-5.2,8.8-10.5,17.6-15.7,26.5c-1.6,2.8-2.1,6-2.4,9.2c-0.2,2.3,1.1,4.2,3,5.3c2.6,1.6,5.2,3.1,7.9,4.4
			c14.5,7.1,23.2,18.5,25.4,34.6c1.5,10.9-0.9,21.2-6.3,30.8c-2.8,5-6.2,9.6-10.4,13.5c-9.6,9-20.8,14.8-34,16.6
			c-9.7,1.3-19.2,0.4-28.3-3.5c-4.9-2.1-9.3-4.9-13.2-8.4c-8-7.3-12.6-16.3-13.8-27c-1.4-11.5,1.2-22.1,7.1-32
			c5.9-9.8,14.1-17.1,24.1-22.5c3.6-1.9,6.8-4.6,10.1-7c0.3-0.2,0.5-0.9,0.4-1.3c-0.5-2.8-1-5.6-1.7-8.3c-0.3-1.2-0.9-2.3-1.5-3.4
			c-5.2-8.6-10.3-17.2-15.6-25.7c-0.6-0.9-1.6-1.8-2.7-2.2c-6.3-2.7-12.6-5.5-19.1-7.8c-2.8-1-5.9-1.3-8.8-1.8
			c-6.4-1.1-12.7-2.1-19.1-3c-2.6-0.4-5.3-0.3-7.9-0.6c-10.8-1.3-20.5-5.2-28.9-12c-9.3-7.5-15.1-17-17.2-28.8
			c-0.4-2.2-0.6-4.4-0.6-6.6c0-8.9,0.1-17.7,0.2-26.6c0.1-5,0.2-10,0.2-15c0.1-5.1,0.2-10.3,0.2-15.4c0.1-4.9,0.2-9.9,0.2-14.8
			c0.1-5.2,0.2-10.3,0.2-15.5c0.1-5,0.2-9.9,0.2-14.9c0.1-5.2,0.2-10.4,0.2-15.6c0.1-4.9,0.2-9.9,0.2-14.8
			c0.1-5.2,0.2-10.3,0.2-15.5c0.1-5,0.2-9.9,0.2-14.9c0.1-5.1,0.2-10.3,0.2-15.4c0.1-5,0.2-10.1,0.2-15.1c0.1-5.1,0.2-10.2,0.2-15.3
			c0.1-5,0.2-10,0.2-15c0.1-5.2,0.2-10.3,0.2-15.5c0.1-5,0.2-9.9,0.2-14.9c0.1-4.1,0.2-8.1,0.2-12.2c0-5.2,3.3-8,8.5-7.3
			c2,0.3,3.9,0.6,5.9,0.9c3.8,0.6,6.1,3.2,6,7.1c0,6.2-0.1,12.3-0.2,18.5c-0.1,4.5-0.2,9.1-0.2,13.6c-0.1,5.6-0.2,11.1-0.2,16.7
			c-0.1,4.8-0.2,9.6-0.2,14.4c-0.1,5.3-0.2,10.6-0.2,15.9c-0.1,4.9-0.2,9.8-0.2,14.7c-0.1,5.3-0.2,10.6-0.2,15.9
			c-0.1,4.9-0.2,9.8-0.2,14.7c-0.1,5.2-0.2,10.4-0.2,15.6c-0.1,4.9-0.2,9.9-0.2,14.8c-0.1,5.2-0.2,10.3-0.2,15.5
			c-0.1,5-0.2,10-0.2,15c-0.1,5.1-0.1,10.3-0.2,15.4c0,2.3-0.2,4.5-0.2,6.8c0,3.4,2.3,5.9,5.7,6.1c2.5,0.2,5,0.2,7.5,0.3
			c4,0,6.4-2.2,6.6-6.2c0-0.2,0-0.3,0-0.5c0.1-6.9,0.2-13.8,0.2-20.6c0.1-7.3,0.2-14.5,0.2-21.8c0.1-4.9,0.2-9.8,0.2-14.7
			c0.1-5.2,0.2-10.4,0.2-15.6c0.1-4.9,0.2-9.8,0.2-14.7c0.1-5.2,0.2-10.4,0.2-15.6c0.1-5,0.2-10,0.2-15c0.1-5.1,0.2-10.2,0.2-15.3
			c0.1-5,0.2-10.1,0.2-15.1c0.1-5,0.2-10.1,0.2-15.1c0.1-5,0.2-10.1,0.2-15.1c0.1-5.1,0.1-10.2,0.2-15.3c0.1-2.9,0.1-5.8,0.2-8.7
			c0.1-3.8,3.8-6.8,7.5-6.2c1.4,0.2,2.8,0.4,4.2,0.6c4.2,0.6,6.8,4,6.1,8.3c-0.1,0.6-0.1,1.3-0.1,1.9c-0.1,9-0.2,18.1-0.2,27.1
			c-0.1,5-0.2,10.1-0.2,15.1c-0.1,5.1-0.2,10.2-0.2,15.3c-0.1,5-0.2,10-0.2,15c-0.1,5.2-0.2,10.3-0.2,15.5c-0.1,5-0.2,9.9-0.2,14.9
			c-0.1,5.1-0.2,10.3-0.2,15.4c-0.1,5-0.2,10.1-0.2,15.1c-0.1,5.1-0.2,10.2-0.2,15.3c-0.1,5-0.2,10-0.2,15
			c-0.1,5.1-0.2,10.2-0.2,15.3c-0.1,5-0.1,10.1-0.2,15.1c0,1.7-0.2,3.5-0.2,5.2c0,4,2.5,6.4,6.5,6.5c2.7,0,5.5,0.2,8.2,0.2
			c3.1,0,5.5-2.3,5.7-5.4c0.1-2.4,0.2-4.8,0.2-7.3c0.1-7.6,0.2-15.3,0.3-22.9c0.1-5,0.2-10,0.2-15c0.1-5.1,0.2-10.2,0.2-15.3
			c0.1-5,0.2-10,0.2-15c0.1-5.2,0.2-10.3,0.2-15.5c0.1-5,0.2-9.9,0.2-14.9c0.1-5.1,0.2-10.3,0.2-15.4c0.1-5.1,0.2-10.2,0.2-15.3
			c0.1-5,0.2-10,0.2-15c0.1-5.1,0.2-10.2,0.2-15.3c0.1-5,0.2-10.1,0.2-15.1c0.1-5,0.1-10.1,0.3-15.1c0-1.3,0.1-2.6,0.4-3.9
			c0.8-3.2,3.8-5,7.3-4.6c2.7,0.3,5.4,0.7,8.1,1.2c4.1,0.7,6.1,3.5,6,7.9c-0.1,3.8-0.2,7.6-0.2,11.4c-0.1,6.2-0.2,12.5-0.2,18.7
			c-0.1,4.9-0.2,9.9-0.2,14.8c-0.1,5.2-0.2,10.3-0.2,15.5c-0.1,5-0.2,9.9-0.2,14.9c-0.1,5.1-0.2,10.3-0.2,15.4c-0.1,5-0.2,10-0.2,15
			c-0.1,5.1-0.2,10.2-0.2,15.3c-0.1,5-0.2,10.1-0.2,15.1s-0.2,10.1-0.2,15.1c-0.1,5-0.2,10.1-0.2,15.1c-0.1,5.2-0.2,10.4-0.2,15.6
			c-0.1,5-0.2,10-0.2,15c0,3.3,2.5,5.8,5.7,5.9c1.7,0.1,3.5,0.2,5.2,0.2c4.2,0.2,7-2.4,7-6.6c0.1-6.6,0.2-13.2,0.2-19.8
			c0.1-7,0.2-13.9,0.2-20.9c0.1-5,0.2-10,0.2-15c0.1-5.1,0.2-10.2,0.2-15.3c0.1-5,0.2-10,0.2-15c0.1-5.2,0.2-10.3,0.2-15.5
			c0.1-5,0.2-9.9,0.2-14.9c0.1-5.1,0.2-10.3,0.2-15.4c0.1-5,0.2-10,0.2-15c0.1-5.1,0.2-10.2,0.2-15.3c0.1-5.1,0.2-10.2,0.2-15.3
			c0.1-5,0.2-10.1,0.2-15.1c0.1-4.1,2.1-6.8,6-7.2c2.7-0.3,5.5,0.1,7.9,1.6c1.8,1.2,2.7,2.9,2.7,5.1c0,7.8-0.1,15.6-0.2,23.4
			c0,3-0.2,6-0.2,8.9c-0.1,7-0.2,14.1-0.3,21.1c-0.1,5-0.2,9.9-0.2,14.9c-0.1,5.2-0.2,10.4-0.2,15.6c-0.1,4.9-0.2,9.9-0.2,14.8
			c-0.1,5.2-0.2,10.3-0.2,15.5c-0.1,5-0.2,9.9-0.2,14.9c-0.1,5.1-0.2,10.3-0.2,15.4c-0.1,5-0.2,10.1-0.2,15.1
			c-0.1,5.1-0.2,10.2-0.2,15.3c-0.1,5-0.1,10-0.2,15c0,1.3-0.2,2.7-0.2,4c0,3.9,2.6,6.5,6.5,6.6c1.8,0,3.6,0,5.4,0
			c2.8,0,5.3-2.4,5.4-5.2c0.1-3.1,0.2-6.3,0.3-9.4c0.1-7.6,0.2-15.2,0.3-22.8c0.1-5,0.2-10.1,0.2-15.1c0.1-5.1,0.2-10.3,0.2-15.4
			c0.1-5,0.2-10,0.2-15c0.1-5.1,0.2-10.2,0.2-15.3c0.1-5.1,0.2-10.3,0.2-15.4c0.1-5,0.2-9.9,0.2-14.9c0.1-5.1,0.2-10.3,0.2-15.4
			c0.1-5,0.2-9.9,0.2-14.9c0.1-5.1,0.2-10.3,0.2-15.4c0.1-5.1,0.1-10.2,0.2-15.3c0-2.3,0.1-4.6,0.2-6.9c0.2-3.5,3.6-6.2,7.4-5.8
			c1.5,0.2,3,0.4,4.5,0.7c3.6,0.8,5.8,4.1,5.3,7.8c-0.1,0.7-0.1,1.3-0.1,2c-0.1,9-0.2,18-0.2,27c-0.1,5-0.2,10.1-0.2,15.1
			c-0.1,5.1-0.2,10.2-0.2,15.3c-0.1,5-0.2,10-0.2,15c-0.1,5.2-0.2,10.3-0.2,15.5c-0.1,5-0.2,9.9-0.2,14.9
			c-0.1,5.1-0.2,10.3-0.2,15.4c-0.1,5-0.2,9.9-0.2,14.9c-0.1,5.2-0.2,10.3-0.2,15.5c-0.1,4.9-0.2,9.9-0.2,14.8
			c-0.1,5.2-0.1,10.3-0.2,15.5c0,2.5-0.2,5.1-0.2,7.6c0,3.4,2.1,5.8,5.5,6.1c0.9,0.1,1.9,0.2,2.8,0.2c3.8,0.3,6.8-2,7-6.7
			c0-0.1,0-0.2,0-0.4c0.1-9,0.1-18,0.2-27c0.1-5.3,0.2-10.7,0.2-16c0.1-4.9,0.2-9.9,0.2-14.8c0.1-5.2,0.2-10.3,0.2-15.5
			c0.1-5,0.2-9.9,0.2-14.9c0.1-5.2,0.2-10.4,0.2-15.6c0.1-4.9,0.2-9.9,0.2-14.8c0.1-5.2,0.2-10.3,0.2-15.5c0.1-5,0.2-10,0.2-15
			c0.1-5.1,0.2-10.3,0.2-15.4c0.1-4.9,0.1-9.9,0.2-14.8c0-2.1,0.1-4.3,0.3-6.4c0.2-2,1.3-3.6,3-4.7c3.1-1.9,8.9-0.9,10.9,2.1
			c0.6,1,1,2.3,1.1,3.4c0.2,2.3,0.1,4.7,0.1,7C374.5,97.4,374.4,97.4,374.4,97.4z"/>
	</g>
</g>
<polyline class="st1" points="185,292.2 185,342.6 211.7,364.2 285.6,367.1 285.6,390.2 331.1,390.2 331.1,372.9 351.7,372.9 
	351.7,356.3 397.3,356.3 397.3,345.1 397.3,325.4 387.3,316.1 386.8,300 "/>
<polyline class="st1" points="197.6,292.2 197.6,337.9 214.2,351.6 294.6,354.1 294.6,390.2 "/>
<polyline class="st1" points="209.2,292.2 209.2,332.9 219.2,341.2 300.8,344 300.8,390.2 "/>
<polyline class="st2" points="340.6,316.1 340.6,338.6 309.2,371.1 309.2,390.2 309.2,485.4 "/>
<polyline class="st1" points="317.3,390.2 317.3,372.7 348.1,341.2 348.1,325.1 367.6,325.1 367.6,306.7 "/>
<path class="st2" d="M235.3,323"/>
<polyline class="st1" points="324.9,390.2 324.9,372.9 356.4,341.2 378.5,341.2 378.5,316.1 "/>
<polyline class="st1" points="408.9,345.1 408.9,325.4 417.1,316.1 417.1,300 "/>
<polyline class="st3" points="222.5,297.2 260.8,297.8 283.7,298.1 299.8,311.1 311.7,311.1 "/>
<polyline class="st3" points="260.8,297.8 288.3,322.6 311.7,323 "/>
<polyline class="st3" points="222.5,306.7 246.1,332.9 324.9,335.2 324.9,300 347.9,300 "/>
<line class="st3" x1="235.3" y1="297.2" x2="255" y2="319.4"/>
<circle class="st4" cx="314.7" cy="311.1" r="3"/>
<circle class="st5" cx="185" cy="292.2" r="3"/>
<path class="st5" d="M197.6,288.2c-1.7,0-3,1.3-3,3s1.3,3,3,3c1.7,0,3-1.3,3-3S199.3,288.2,197.6,288.2z M197.6,292.2
	c-0.5,0-1-0.4-1-1s0.4-1,1-1s1,0.4,1,1S198.2,292.2,197.6,292.2z"/>
<circle class="st5" cx="209.2" cy="291.2" r="3"/>
<path class="st3" d="M219.5,294.2c-1.7,0-3,1.3-3,3s1.3,3,3,3s3-1.3,3-3S221.2,294.2,219.5,294.2z M219.5,298.2c-0.5,0-1-0.4-1-1
	s0.4-1,1-1s1,0.4,1,1S220,298.2,219.5,298.2z"/>
<path class="st5" d="M417.1,296c-1.7,0-3,1.3-3,3c0,1.7,1.3,3,3,3s3-1.3,3-3S418.8,296,417.1,296z M417.1,300c-0.5,0-1-0.4-1-1
	s0.4-1,1-1s1,0.4,1,1S417.7,300,417.1,300z"/>
<path class="st5" d="M408.9,345.4c-1.7,0-3,1.3-3,3s1.3,3,3,3s3-1.3,3-3S410.5,345.4,408.9,345.4z M408.9,349.4c-0.5,0-1-0.4-1-1
	s0.4-1,1-1s1,0.4,1,1S409.4,349.4,408.9,349.4z"/>
<circle class="st5" cx="378.5" cy="316.1" r="3"/>
<path class="st5" d="M367.6,302.7c-1.7,0-3,1.3-3,3s1.3,3,3,3c1.7,0,3-1.3,3-3S369.2,302.7,367.6,302.7z M367.6,306.7
	c-0.5,0-1-0.4-1-1s0.4-1,1-1s1,0.4,1,1S368.1,306.7,367.6,306.7z"/>
<circle class="st5" cx="340.6" cy="316.1" r="3"/>
<path class="st3" d="M350.7,297.2c-1.7,0-3,1.3-3,3c0,1.7,1.3,3,3,3s3-1.3,3-3S352.4,297.2,350.7,297.2z M350.7,301.2
	c-0.5,0-1-0.4-1-1s0.4-1,1-1s1,0.4,1,1S351.2,301.2,350.7,301.2z"/>
<circle class="st6" cx="309.2" cy="487.3" r="3"/>
<path class="st5" d="M387.3,296c-1.7,0-3,1.3-3,3s1.3,3,3,3s3-1.3,3-3S389,296,387.3,296z M387.3,300c-0.5,0-1-0.4-1-1s0.4-1,1-1
	s1,0.4,1,1S387.9,300,387.3,300z"/>
<path class="st3" d="M314.7,319.9c-1.7,0-3,1.3-3,3s1.3,3,3,3c1.7,0,3-1.3,3-3S316.3,319.9,314.7,319.9z M314.7,323.9
	c-0.5,0-1-0.4-1-1s0.4-1,1-1s1,0.4,1,1S315.2,323.9,314.7,323.9z"/>
<circle class="st4" cx="255" cy="319.9" r="3"/>
<path class="st3" d="M219.5,303.4c-1.7,0-3,1.3-3,3c0,1.7,1.3,3,3,3s3-1.3,3-3C222.5,304.7,221.2,303.4,219.5,303.4z M219.5,307.4
	c-0.5,0-1-0.4-1-1s0.4-1,1-1s1,0.4,1,1S220.1,307.4,219.5,307.4z"/>
<polyline class="st2" points="309.2,511.4 279.8,498 279.8,472.2 309.2,457 337.6,468.8 337.6,496.3 324.9,508.1 "/>
<polyline class="st1" points="309.2,390.2 309.2,371.1 340.6,338.6 340.6,316.1 "/>
<polyline class="st2" points="306.2,503.4 285.2,494.4 285.2,475 308.7,463.1 329.4,471.5 329.4,492.5 317.3,503.4 "/>
<polyline class="st2" points="308.7,470.1 291.2,478 291.2,487.3 "/>
<polyline class="st2" points="308.7,478.7 321,483.2 321,490.3 "/>
<path class="st6" d="M321,490.3c-1.7,0-3,1.3-3,3s1.3,3,3,3s3-1.3,3-3S322.6,490.3,321,490.3z M321,494.3c-0.5,0-1-0.4-1-1
	s0.4-1,1-1s1,0.4,1,1S321.5,494.3,321,494.3z"/>
<path class="st6" d="M324,506.5c-1.7,0-3,1.3-3,3s1.3,3,3,3s3-1.3,3-3S325.6,506.5,324,506.5z M324,510.5c-0.5,0-1-0.4-1-1
	s0.4-1,1-1s1,0.4,1,1S324.5,510.5,324,510.5z"/>
<path class="st6" d="M291.2,486.1c-1.7,0-3,1.3-3,3s1.3,3,3,3c1.7,0,3-1.3,3-3S292.8,486.1,291.2,486.1z M291.2,490.1
	c-0.5,0-1-0.4-1-1s0.4-1,1-1s1,0.4,1,1S291.7,490.1,291.2,490.1z"/>
<path class="st6" d="M308.7,501.3c-1.7,0-3,1.3-3,3s1.3,3,3,3c1.7,0,3-1.3,3-3S310.3,501.3,308.7,501.3z M308.7,505.3
	c-0.5,0-1-0.4-1-1s0.4-1,1-1s1,0.4,1,1S309.2,505.3,308.7,505.3z"/>
<path class="st6" d="M316.3,501.3c-1.7,0-3,1.3-3,3s1.3,3,3,3c1.7,0,3-1.3,3-3C319.3,502.7,318,501.3,316.3,501.3z M316.3,505.3
	c-0.5,0-1-0.4-1-1s0.4-1,1-1s1,0.4,1,1S316.9,505.3,316.3,505.3z"/>
<path class="st6" d="M310.7,509.5c-1.7,0-3,1.3-3,3s1.3,3,3,3s3-1.3,3-3S312.4,509.5,310.7,509.5z M310.7,513.5c-0.5,0-1-0.4-1-1
	s0.4-1,1-1s1,0.4,1,1S311.2,513.5,310.7,513.5z"/>
<circle class="st6" cx="309.2" cy="390.2" r="3"/>
<polyline class="st7" points="146.6,66.2 142.5,365.9 194.6,412.3 196.7,496.4 "/>
<polyline class="st7" points="137.9,69.1 133.8,368.9 186,415.2 188,499.3 "/>
<polyline class="st7" points="129.9,74.1 125.8,373.8 178,420.2 180,504.3 "/>
<path class="st8" d="M129.9,70c-1.7,0-3,1.3-3,3c0,1.7,1.3,3,3,3s3-1.3,3-3C133,71.4,131.6,70,129.9,70z M129.9,74c-0.5,0-1-0.4-1-1
	s0.4-1,1-1s1,0.4,1,1S130.5,74,129.9,74z"/>
<path class="st8" d="M137.7,64.1c-1.7,0-3,1.3-3,3c0,1.7,1.3,3,3,3s3-1.3,3-3C140.7,65.4,139.4,64.1,137.7,64.1z M137.7,68.1
	c-0.5,0-1-0.4-1-1s0.4-1,1-1s1,0.4,1,1S138.2,68.1,137.7,68.1z"/>
<path class="st8" d="M146.8,61c-1.7,0-3,1.3-3,3s1.3,3,3,3s3-1.3,3-3S148.5,61,146.8,61z M146.8,65c-0.5,0-1-0.4-1-1s0.4-1,1-1
	s1,0.4,1,1S147.3,65,146.8,65z"/>
<path class="st8" d="M196.6,496.2c-1.7,0-3,1.3-3,3s1.3,3,3,3s3-1.3,3-3S198.3,496.2,196.6,496.2z M196.6,500.2c-0.5,0-1-0.4-1-1
	s0.4-1,1-1s1,0.4,1,1S197.2,500.2,196.6,500.2z"/>
<path class="st8" d="M180,502.2c-1.7,0-3,1.3-3,3s1.3,3,3,3c1.7,0,3-1.3,3-3S181.7,502.2,180,502.2z M180,506.2c-0.5,0-1-0.4-1-1
	s0.4-1,1-1s1,0.4,1,1S180.6,506.2,180,506.2z"/>
<path class="st8" d="M188.3,498.2c-1.7,0-3,1.3-3,3s1.3,3,3,3s3-1.3,3-3S190,498.2,188.3,498.2z M188.3,502.2c-0.5,0-1-0.4-1-1
	s0.4-1,1-1s1,0.4,1,1S188.9,502.2,188.3,502.2z"/>
<polyline class="st7" points="108.1,109.2 108.1,163.9 63.6,197.7 63.6,256.8 "/>
<polyline class="st7" points="70.4,256.8 70.4,200.5 116.6,166 116.6,109.2 "/>
<polyline class="st7" points="93.5,196 116.6,208.3 115,348.5 60,379.7 60.4,406.6 "/>
<polyline class="st7" points="89.2,202.2 111.5,214.4 108.8,344.3 55.5,374.5 55.5,412.1 "/>
<polyline class="st7" points="92.9,211.8 105.5,219.3 102.6,341.2 46.2,373.9 46.2,400.8 "/>
<path class="st8" d="M116.9,103.2c-1.7,0-3,1.3-3,3c0,1.7,1.3,3,3,3s3-1.3,3-3S118.6,103.2,116.9,103.2z M116.9,107.2
	c-0.5,0-1-0.4-1-1s0.4-1,1-1s1,0.4,1,1S117.5,107.2,116.9,107.2z"/>
<path class="st8" d="M108.1,103.1c-1.7,0-3,1.3-3,3c0,1.7,1.3,3,3,3s3-1.3,3-3S109.7,103.1,108.1,103.1z M108.1,107.1
	c-0.5,0-1-0.4-1-1s0.4-1,1-1s1,0.4,1,1S108.6,107.1,108.1,107.1z"/>
<path class="st8" d="M60.7,405.6c-1.7,0-3,1.3-3,3c0,1.7,1.4,3,3,3c1.7,0,3-1.3,3-3S62.4,405.6,60.7,405.6z M60.7,409.6
	c-0.5,0-1-0.4-1-1s0.4-1,1-1s1,0.4,1,1S61.3,409.6,60.7,409.6z"/>
<path class="st8" d="M46.2,400.5c-1.7,0-3,1.3-3,3s1.4,3,3,3c1.7,0,3-1.3,3-3S47.9,400.5,46.2,400.5z M46.2,404.5c-0.5,0-1-0.4-1-1
	s0.4-1,1-1s1,0.4,1,1S46.7,404.5,46.2,404.5z"/>
<path class="st8" d="M55.5,411.4c-1.7,0-3,1.3-3,3c0,1.7,1.4,3,3,3c1.7,0,3-1.3,3-3C58.5,412.7,57.2,411.4,55.5,411.4z M55.5,415.4
	c-0.5,0-1-0.4-1-1s0.4-1,1-1s1,0.4,1,1S56,415.4,55.5,415.4z"/>
<path class="st8" d="M91.3,192.1c-1.7,0-3,1.3-3,3c0,1.7,1.4,3,3,3c1.7,0,3-1.3,3-3S93,192.1,91.3,192.1z M91.3,196.1
	c-0.5,0-1-0.4-1-1s0.4-1,1-1s1,0.4,1,1S91.9,196.1,91.3,196.1z"/>
<path class="st8" d="M88.3,198c-1.7,0-3,1.3-3,3s1.4,3,3,3c1.7,0,3-1.3,3-3S90,198,88.3,198z M88.3,202c-0.5,0-1-0.4-1-1s0.4-1,1-1
	s1,0.4,1,1S88.9,202,88.3,202z"/>
<path class="st8" d="M90.5,208.8c-1.7,0-3,1.3-3,3s1.4,3,3,3s3-1.3,3-3S92.1,208.8,90.5,208.8z M90.5,212.8c-0.5,0-1-0.4-1-1
	s0.4-1,1-1s1,0.4,1,1S91,212.8,90.5,212.8z"/>
<path class="st8" d="M70.4,255.9c-1.7,0-3,1.3-3,3s1.4,3,3,3s3-1.3,3-3S72,255.9,70.4,255.9z M70.4,259.9c-0.5,0-1-0.4-1-1
	s0.4-1,1-1s1,0.4,1,1S70.9,259.9,70.4,259.9z"/>
<path class="st8" d="M63.3,255.9c-1.7,0-3,1.3-3,3c0,1.7,1.4,3,3,3s3-1.3,3-3C66.3,257.3,65,255.9,63.3,255.9z M63.3,259.9
	c-0.5,0-1-0.4-1-1s0.4-1,1-1s1,0.4,1,1S63.9,259.9,63.3,259.9z"/>
<polyline class="st7" points="83.1,373.9 142.5,428.1 142.5,474.9 "/>
<polyline class="st7" points="80.4,378.8 135.8,430 135.8,477.1 "/>
<polyline class="st7" points="80.4,387.2 129.7,432.3 129.7,478.7 "/>
<path class="st8" d="M79.4,383.1c-1.7,0-3,1.3-3,3s1.4,3,3,3c1.7,0,3-1.3,3-3S81.1,383.1,79.4,383.1z M79.4,387.1c-0.5,0-1-0.4-1-1
	s0.4-1,1-1s1,0.4,1,1S80,387.1,79.4,387.1z"/>
<path class="st8" d="M82.5,369.9c-1.7,0-3,1.3-3,3c0,1.7,1.4,3,3,3s3-1.3,3-3S84.1,369.9,82.5,369.9z M82.5,373.9c-0.5,0-1-0.4-1-1
	s0.4-1,1-1s1,0.4,1,1S83,373.9,82.5,373.9z"/>
<path class="st8" d="M78.5,373.9c-1.7,0-3,1.3-3,3s1.4,3,3,3c1.7,0,3-1.3,3-3S80.1,373.9,78.5,373.9z M78.5,377.9c-0.5,0-1-0.4-1-1
	s0.4-1,1-1s1,0.4,1,1S79,377.9,78.5,377.9z"/>
<path class="st8" d="M128.8,478.1c-1.7,0-3,1.3-3,3s1.3,3,3,3s3-1.3,3-3S130.5,478.1,128.8,478.1z M128.8,482.1c-0.5,0-1-0.4-1-1
	s0.4-1,1-1s1,0.4,1,1S129.4,482.1,128.8,482.1z"/>
<path class="st8" d="M135.8,477.1c-1.7,0-3,1.3-3,3s1.3,3,3,3c1.7,0,3-1.3,3-3S137.4,477.1,135.8,477.1z M135.8,481.1
	c-0.5,0-1-0.4-1-1s0.4-1,1-1s1,0.4,1,1S136.3,481.1,135.8,481.1z"/>
<path class="st8" d="M142.5,474.1c-1.7,0-3,1.3-3,3s1.3,3,3,3s3-1.3,3-3S144.1,474.1,142.5,474.1z M142.5,478.1c-0.5,0-1-0.4-1-1
	s0.4-1,1-1s1,0.4,1,1S143,478.1,142.5,478.1z"/>
<path class="st8" d="M35.7,287.7v24.6h24.6v-24.6H35.7z M56.1,308H39.8v-16.4h16.4L56.1,308L56.1,308z"/>
<line class="st7" x1="39.8" y1="287.7" x2="39.8" y2="279"/>
<line class="st7" x1="55.5" y1="287.9" x2="55.5" y2="279.2"/>
<line class="st7" x1="51.3" y1="287.9" x2="51.3" y2="279.2"/>
<line class="st7" x1="47.9" y1="287.9" x2="47.9" y2="279.2"/>
<line class="st7" x1="44" y1="287.9" x2="44" y2="279.2"/>
<line class="st7" x1="60" y1="292.5" x2="68.7" y2="292.5"/>
<line class="st7" x1="47.9" y1="320.5" x2="47.9" y2="311.8"/>
<line class="st7" x1="52.7" y1="320.9" x2="52.7" y2="312.2"/>
<line class="st7" x1="56.7" y1="320.9" x2="56.7" y2="312.2"/>
<line class="st7" x1="43" y1="320.9" x2="43" y2="312.2"/>
<line class="st7" x1="39.8" y1="320.9" x2="39.8" y2="312.2"/>
<line class="st7" x1="60" y1="296.4" x2="68.7" y2="296.4"/>
<line class="st7" x1="60" y1="300.3" x2="68.7" y2="300.3"/>
<line class="st7" x1="60" y1="304.2" x2="68.7" y2="304.2"/>
<line class="st7" x1="60" y1="308.2" x2="68.7" y2="308.2"/>
<line class="st7" x1="27.1" y1="292.6" x2="35.7" y2="292.6"/>
<line class="st7" x1="27.1" y1="296.5" x2="35.7" y2="296.5"/>
<line class="st7" x1="27.1" y1="300.4" x2="35.7" y2="300.4"/>
<line class="st7" x1="27.1" y1="304.4" x2="35.7" y2="304.4"/>
<line class="st7" x1="27.1" y1="308.3" x2="35.7" y2="308.3"/>
<polyline class="st7" points="85.3,112.4 99.7,122.7 99.7,159.1 56.7,192.1 56.7,246.9 39.8,256.8 39.8,266.5 "/>
<polyline class="st7" points="94.3,226.8 94.3,332.2 51.3,358.4 35.7,358.4 "/>
<polyline class="st7" points="87.3,259.9 87.3,323.9 60,341.2 "/>
<path class="st8" d="M33.4,355.4c-1.7,0-3,1.3-3,3s1.4,3,3,3c1.7,0,3-1.3,3-3S35.1,355.4,33.4,355.4z M33.4,359.4c-0.5,0-1-0.4-1-1
	s0.4-1,1-1s1,0.4,1,1S33.9,359.4,33.4,359.4z"/>
<path class="st8" d="M94.3,222.8c-1.7,0-3,1.3-3,3s1.4,3,3,3s3-1.3,3-3S96,222.8,94.3,222.8z M94.3,226.8c-0.5,0-1-0.4-1-1
	s0.4-1,1-1s1,0.4,1,1S94.9,226.8,94.3,226.8z"/>
<path class="st8" d="M87.3,254.9c-1.7,0-3,1.3-3,3s1.4,3,3,3c1.7,0,3-1.3,3-3S89,254.9,87.3,254.9z M87.3,258.9c-0.5,0-1-0.4-1-1
	s0.4-1,1-1s1,0.4,1,1S87.9,258.9,87.3,258.9z"/>
<path class="st8" d="M59,338.2c-1.7,0-3,1.3-3,3s1.4,3,3,3c1.7,0,3-1.3,3-3S60.7,338.2,59,338.2z M59,342.2c-0.5,0-1-0.4-1-1
	s0.4-1,1-1s1,0.4,1,1S59.6,342.2,59,342.2z"/>
<path class="st8" d="M83.5,109.4c-1.7,0-3,1.3-3,3c0,1.7,1.4,3,3,3s3-1.3,3-3C86.5,110.7,85.2,109.4,83.5,109.4z M83.5,113.4
	c-0.5,0-1-0.4-1-1s0.4-1,1-1s1,0.4,1,1S84,113.4,83.5,113.4z"/>
<path class="st8" d="M39.8,264.5c-1.7,0-3,1.3-3,3c0,1.7,1.4,3,3,3c1.7,0,3-1.3,3-3C42.8,265.9,41.4,264.5,39.8,264.5z M39.8,268.5
	c-0.5,0-1-0.4-1-1s0.4-1,1-1s1,0.4,1,1S40.3,268.5,39.8,268.5z"/>
<polyline class="st7" points="158.6,369.9 202.7,408.6 202.7,474.1 220.2,492.2 220.2,519.6 "/>
<polyline class="st7" points="165.8,369.9 209.2,406.6 209.2,470.1 226.5,487.3 226.5,511.5 245.1,534.1 245.1,547.9 "/>
<path class="st8" d="M165.2,365.8c-1.7,0-3,1.3-3,3s1.3,3,3,3s3-1.3,3-3S166.9,365.8,165.2,365.8z M165.2,369.8c-0.5,0-1-0.4-1-1
	s0.4-1,1-1s1,0.4,1,1S165.8,369.8,165.2,369.8z"/>
<path class="st8" d="M245.1,547.9c-1.7,0-3,1.3-3,3s1.3,3,3,3c1.7,0,3-1.3,3-3S246.8,547.9,245.1,547.9z M245.1,551.9
	c-0.5,0-1-0.4-1-1s0.4-1,1-1s1,0.4,1,1S245.7,551.9,245.1,551.9z"/>
<path class="st8" d="M220.2,519.6c-1.7,0-3,1.3-3,3s1.3,3,3,3s3-1.3,3-3S221.9,519.6,220.2,519.6z M220.2,523.6c-0.5,0-1-0.4-1-1
	s0.4-1,1-1s1,0.4,1,1S220.8,523.6,220.2,523.6z"/>
<path class="st8" d="M157.6,366.8c-1.7,0-3,1.3-3,3s1.3,3,3,3s3-1.3,3-3S159.3,366.8,157.6,366.8z M157.6,370.8c-0.5,0-1-0.4-1-1
	s0.4-1,1-1s1,0.4,1,1S158.2,370.8,157.6,370.8z"/>
<polyline class="st7" points="494.2,183 514.7,204 499.8,222.8 453,222.8 453,132.9 495.4,132.9 514.7,152.9 486.9,173.5 "/>
<polyline class="st7" points="482.9,169.1 504.7,152.3 492.7,141 461,141 461,213.8 493.8,213.8 501.4,203.6 488,189.4 "/>
<polyline class="st7" points="482.9,159.9 493.8,151.6 469.4,151.6 469.4,201.5 482.9,201.5 489.1,201.5 482.9,194.5 "/>
<path class="st8" d="M486.2,172.1c-1.7,0-3,1.3-3,3c0,1.7,1.3,3,3,3s3-1.3,3-3C489.2,173.4,487.9,172.1,486.2,172.1z M486.2,176.1
	c-0.5,0-1-0.4-1-1s0.4-1,1-1s1,0.4,1,1S486.7,176.1,486.2,176.1z"/>
<path class="st8" d="M480.9,167.3c-1.7,0-3,1.3-3,3c0,1.7,1.3,3,3,3s3-1.3,3-3C483.9,168.6,482.5,167.3,480.9,167.3z M480.9,171.3
	c-0.5,0-1-0.4-1-1s0.4-1,1-1s1,0.4,1,1S481.4,171.3,480.9,171.3z"/>
<path class="st8" d="M492.9,177.9c-1.7,0-3,1.3-3,3s1.3,3,3,3s3-1.3,3-3S494.6,177.9,492.9,177.9z M492.9,181.9c-0.5,0-1-0.4-1-1
	s0.4-1,1-1s1,0.4,1,1S493.5,181.9,492.9,181.9z"/>
<path class="st8" d="M486.9,185.2c-1.7,0-3,1.3-3,3s1.3,3,3,3c1.7,0,3-1.3,3-3S488.6,185.2,486.9,185.2z M486.9,189.2
	c-0.5,0-1-0.4-1-1s0.4-1,1-1s1,0.4,1,1S487.4,189.2,486.9,189.2z"/>
<path class="st8" d="M480.9,190.3c-1.7,0-3,1.3-3,3s1.3,3,3,3c1.7,0,3-1.3,3-3S482.5,190.3,480.9,190.3z M480.9,194.3
	c-0.5,0-1-0.4-1-1s0.4-1,1-1s1,0.4,1,1S481.4,194.3,480.9,194.3z"/>
<path class="st8" d="M480.9,158.5c-1.7,0-3,1.3-3,3c0,1.7,1.3,3,3,3s3-1.3,3-3C483.9,159.9,482.5,158.5,480.9,158.5z M480.9,162.5
	c-0.5,0-1-0.4-1-1s0.4-1,1-1s1,0.4,1,1S481.4,162.5,480.9,162.5z"/>
<path class="st8" d="M466.8,247.2v83.9h22v-83.9H466.8z M481,326.6h-5.8v-72.8h5.8V326.6z"/>
<line class="st7" x1="488.6" y1="252.9" x2="497.2" y2="252.9"/>
<line class="st7" x1="488.6" y1="256.8" x2="497.2" y2="256.8"/>
<line class="st7" x1="488.6" y1="260.7" x2="497.2" y2="260.7"/>
<line class="st7" x1="488.6" y1="264.6" x2="497.2" y2="264.6"/>
<line class="st7" x1="488.6" y1="268.6" x2="497.2" y2="268.5"/>
<line class="st7" x1="488.6" y1="272.5" x2="497.2" y2="272.5"/>
<line class="st7" x1="488.6" y1="276.4" x2="497.2" y2="276.4"/>
<line class="st7" x1="488.6" y1="280.3" x2="497.2" y2="280.3"/>
<line class="st7" x1="488.6" y1="284.2" x2="497.2" y2="284.2"/>
<line class="st7" x1="488.6" y1="288.1" x2="497.2" y2="288.1"/>
<line class="st7" x1="488.6" y1="292" x2="497.2" y2="292"/>
<line class="st7" x1="488.6" y1="296" x2="497.2" y2="296"/>
<line class="st7" x1="488.6" y1="299.9" x2="497.2" y2="299.9"/>
<line class="st7" x1="488.6" y1="303.8" x2="497.2" y2="303.8"/>
<line class="st7" x1="488.6" y1="307.7" x2="497.2" y2="307.7"/>
<line class="st7" x1="488.6" y1="311.6" x2="497.2" y2="311.6"/>
<line class="st7" x1="488.6" y1="315.5" x2="497.2" y2="315.5"/>
<line class="st7" x1="488.6" y1="319.5" x2="497.2" y2="319.5"/>
<line class="st7" x1="488.6" y1="323.4" x2="497.2" y2="323.4"/>
<line class="st7" x1="488.6" y1="327.3" x2="497.2" y2="327.3"/>
<line class="st7" x1="458.2" y1="253" x2="466.8" y2="253"/>
<line class="st7" x1="458.2" y1="257" x2="466.8" y2="257"/>
<line class="st7" x1="458.2" y1="260.9" x2="466.8" y2="260.9"/>
<line class="st7" x1="458.2" y1="264.8" x2="466.8" y2="264.8"/>
<line class="st7" x1="458.2" y1="268.7" x2="466.8" y2="268.7"/>
<line class="st7" x1="458.2" y1="272.6" x2="466.8" y2="272.6"/>
<line class="st7" x1="458.2" y1="276.5" x2="466.8" y2="276.5"/>
<line class="st7" x1="458.2" y1="280.5" x2="466.8" y2="280.5"/>
<line class="st7" x1="458.2" y1="284.4" x2="466.8" y2="284.4"/>
<line class="st7" x1="458.2" y1="288.3" x2="466.8" y2="288.3"/>
<line class="st7" x1="458.2" y1="292.2" x2="466.8" y2="292.2"/>
<line class="st7" x1="458.2" y1="296.1" x2="466.8" y2="296.1"/>
<line class="st7" x1="458.2" y1="300" x2="466.8" y2="300"/>
<line class="st7" x1="458.2" y1="304" x2="466.8" y2="304"/>
<line class="st7" x1="458.2" y1="307.9" x2="466.8" y2="307.9"/>
<line class="st7" x1="458.2" y1="311.8" x2="466.8" y2="311.8"/>
<line class="st7" x1="458.2" y1="315.7" x2="466.8" y2="315.7"/>
<line class="st7" x1="458.2" y1="319.6" x2="466.8" y2="319.6"/>
<line class="st7" x1="458.2" y1="323.5" x2="466.8" y2="323.5"/>
<line class="st7" x1="458.2" y1="327.5" x2="466.8" y2="327.5"/>
<g>
	<line class="st7" x1="442.8" y1="361.7" x2="519.8" y2="361.7"/>
	<line class="st7" x1="471.4" y1="419.8" x2="471.4" y2="361.4"/>
	<line class="st7" x1="491.3" y1="361.7" x2="491.3" y2="419.8"/>
	<line class="st7" x1="476.2" y1="361.4" x2="476.2" y2="429.8"/>
	<line class="st7" x1="481.3" y1="361.7" x2="482.3" y2="444.2"/>
	<line class="st7" x1="486.3" y1="361.7" x2="487" y2="429.8"/>
	<line class="st7" x1="446.7" y1="369.8" x2="464.8" y2="369.8"/>
	<line class="st7" x1="496.7" y1="369.8" x2="512.3" y2="369.8"/>
	<path class="st7" d="M495.6,372.6"/>
	<line class="st7" x1="518.8" y1="365.7" x2="494.6" y2="365.7"/>
	<line class="st7" x1="469" y1="365.7" x2="444.8" y2="365.7"/>
	<path class="st8" d="M521.8,358.4c-1.7,0-3,1.3-3,3c0,1.7,1.3,3,3,3c1.7,0,3-1.3,3-3C524.9,359.7,523.5,358.4,521.8,358.4z
		 M521.8,362.4c-0.5,0-1-0.4-1-1s0.4-1,1-1s1,0.4,1,1S522.4,362.4,521.8,362.4z"/>
	<path class="st8" d="M514.2,367.1c-1.7,0-3,1.3-3,3s1.3,3,3,3s3-1.3,3-3S515.8,367.1,514.2,367.1z M514.2,371.1c-0.5,0-1-0.4-1-1
		s0.4-1,1-1s1,0.4,1,1S514.7,371.1,514.2,371.1z"/>
	<path class="st8" d="M441.8,358.7c-1.7,0-3,1.3-3,3s1.3,3,3,3s3-1.3,3-3S443.5,358.7,441.8,358.7z M441.8,362.7c-0.5,0-1-0.4-1-1
		s0.4-1,1-1s1,0.4,1,1S442.4,362.7,441.8,362.7z"/>
	<path class="st8" d="M444.8,367.8c-1.7,0-3,1.3-3,3s1.3,3,3,3c1.7,0,3-1.3,3-3S446.5,367.8,444.8,367.8z M444.8,371.8
		c-0.5,0-1-0.4-1-1s0.4-1,1-1s1,0.4,1,1S445.3,371.8,444.8,371.8z"/>
	<path class="st8" d="M471.4,418.9c-1.7,0-3,1.3-3,3s1.3,3,3,3c1.7,0,3-1.3,3-3S473.1,418.9,471.4,418.9z M471.4,422.9
		c-0.5,0-1-0.4-1-1s0.4-1,1-1s1,0.4,1,1S472,422.9,471.4,422.9z"/>
	<path class="st8" d="M491.3,418.9c-1.7,0-3,1.3-3,3s1.3,3,3,3s3-1.3,3-3S493,418.9,491.3,418.9z M491.3,422.9c-0.5,0-1-0.4-1-1
		s0.4-1,1-1s1,0.4,1,1S491.8,422.9,491.3,422.9z"/>
	<path class="st8" d="M487.2,428c-1.7,0-3,1.3-3,3s1.3,3,3,3s3-1.3,3-3S488.9,428,487.2,428z M487.2,432c-0.5,0-1-0.4-1-1s0.4-1,1-1
		s1,0.4,1,1S487.8,432,487.2,432z"/>
	<path class="st8" d="M476.2,428c-1.7,0-3,1.3-3,3s1.3,3,3,3s3-1.3,3-3S477.9,428,476.2,428z M476.2,432c-0.5,0-1-0.4-1-1s0.4-1,1-1
		s1,0.4,1,1S476.8,432,476.2,432z"/>
	<path class="st8" d="M482.3,442.8c-1.7,0-3,1.3-3,3s1.3,3,3,3s3-1.3,3-3S483.9,442.8,482.3,442.8z M482.3,446.8c-0.5,0-1-0.4-1-1
		s0.4-1,1-1s1,0.4,1,1S482.8,446.8,482.3,446.8z"/>
</g>
</svg>
