<?xml version="1.0" encoding="utf-8"?>
<!-- Generator: Adobe Illustrator 23.0.6, SVG Export Plug-In . SVG Version: 6.00 Build 0)  -->
<svg version="1.1" id="Layer_1" xmlns="http://www.w3.org/2000/svg" xmlns:xlink="http://www.w3.org/1999/xlink" x="0px" y="0px"
	 viewBox="0 0 417.52 331.35" style="enable-background:new 0 0 417.52 331.35;" xml:space="preserve">
<style type="text/css">
	.st0{fill:#FFFFFF;}
	.st1{fill:#014557;}
	.st2{clip-path:url(#SVGID_2_);}
	.st3{fill:#FEDBC2;}
	.st4{fill:#F4BA91;}
	.st5{fill:#C7C3C0;}
	.st6{fill:#FFEFE3;}
	.st7{fill:#04303A;}
	.st8{fill:#D1D3D4;}
	.st9{fill:#85ACC3;}
	.st10{fill:#FFEBDD;}
	.st11{fill:#C59778;}
	.st12{fill:#937C6C;}
	.st13{fill:#635A55;}
	.st14{opacity:0.3;fill:#FFFFFF;stroke:#9FB7C6;stroke-width:10;stroke-miterlimit:10;}
	.st15{fill:#9FB7C6;}
	.st16{fill:#738794;}
	.st17{fill:#AF9279;}
	.st18{fill:#DDB392;}
	.st19{fill:#C6A28A;}
	.st20{fill:#E4C4AA;}
	.st21{fill:#DCD9D7;}
	.st22{fill:#A09E9E;}
	.st23{font-family:'IntroDemo-BlackCapsInline';}
	.st24{font-size:28.4984px;}
</style>
<symbol  id="Star" viewBox="-1.42 -1.42 2.83 2.83">
	<circle class="st0" cx="0" cy="0" r="1.42"/>
</symbol>
<ellipse class="st1" cx="211.93" cy="170.96" rx="203.4" ry="154.77"/>
<g>
	<defs>
		<ellipse id="SVGID_1_" cx="210.26" cy="169.82" rx="193.23" ry="147.03"/>
	</defs>
	<clipPath id="SVGID_2_">
		<use xlink:href="#SVGID_1_"  style="overflow:visible;"/>
	</clipPath>
	<g class="st2">
		
			<use xlink:href="#Star"  width="2.83" height="2.83" x="-1.42" y="-1.42" transform="matrix(0.801 0 0 -0.654 1.1352 142.0313)" style="overflow:visible;"/>
		
			<use xlink:href="#Star"  width="2.83" height="2.83" x="-1.42" y="-1.42" transform="matrix(0.801 0 0 -0.654 82.7688 153.7939)" style="overflow:visible;"/>
		
			<use xlink:href="#Star"  width="2.83" height="2.83" x="-1.42" y="-1.42" transform="matrix(0.801 0 0 -0.654 77.6074 153.6113)" style="overflow:visible;"/>
		
			<use xlink:href="#Star"  width="2.83" height="2.83" x="-1.42" y="-1.42" transform="matrix(0.801 0 0 -0.654 81.3157 158.0025)" style="overflow:visible;"/>
		
			<use xlink:href="#Star"  width="2.83" height="2.83" x="-1.42" y="-1.42" transform="matrix(0.801 0 0 -0.654 79.7455 169.952)" style="overflow:visible;"/>
		
			<use xlink:href="#Star"  width="2.83" height="2.83" x="-1.42" y="-1.42" transform="matrix(0.801 0 0 -0.654 79.5648 178.061)" style="overflow:visible;"/>
		
			<use xlink:href="#Star"  width="2.83" height="2.83" x="-1.42" y="-1.42" transform="matrix(0.801 0 0 -0.654 79.5271 185.7943)" style="overflow:visible;"/>
		
			<use xlink:href="#Star"  width="2.83" height="2.83" x="-1.42" y="-1.42" transform="matrix(0.801 0 0 -0.654 76.142 194.822)" style="overflow:visible;"/>
		
			<use xlink:href="#Star"  width="2.83" height="2.83" x="-1.42" y="-1.42" transform="matrix(0.801 0 0 -0.654 69.6595 205.2332)" style="overflow:visible;"/>
		
			<use xlink:href="#Star"  width="2.83" height="2.83" x="-1.42" y="-1.42" transform="matrix(0.801 0 0 -0.654 58.5545 209.7549)" style="overflow:visible;"/>
		
			<use xlink:href="#Star"  width="2.83" height="2.83" x="-1.42" y="-1.42" transform="matrix(0.801 0 0 -0.654 37.7146 210.4745)" style="overflow:visible;"/>
		
			<use xlink:href="#Star"  width="2.83" height="2.83" x="-1.42" y="-1.42" transform="matrix(0.801 0 0 -0.654 22.5056 192.0677)" style="overflow:visible;"/>
		
			<use xlink:href="#Star"  width="2.83" height="2.83" x="-1.42" y="-1.42" transform="matrix(0.801 0 0 -0.654 16.1723 164.0025)" style="overflow:visible;"/>
		
			<use xlink:href="#Star"  width="2.83" height="2.83" x="-1.42" y="-1.42" transform="matrix(0.801 0 0 -0.654 24.7636 148.9714)" style="overflow:visible;"/>
		
			<use xlink:href="#Star"  width="2.83" height="2.83" x="-1.42" y="-1.42" transform="matrix(0.801 0 0 -0.654 44.9493 138.6326)" style="overflow:visible;"/>
		
			<use xlink:href="#Star"  width="2.83" height="2.83" x="-1.42" y="-1.42" transform="matrix(0.801 0 0 -0.654 63.9535 123.4631)" style="overflow:visible;"/>
		
			<use xlink:href="#Star"  width="2.83" height="2.83" x="-1.42" y="-1.42" transform="matrix(0.801 0 0 -0.654 69.8455 106.0202)" style="overflow:visible;"/>
		
			<use xlink:href="#Star"  width="2.83" height="2.83" x="-1.42" y="-1.42" transform="matrix(0.801 0 0 -0.654 71.0656 85.1911)" style="overflow:visible;"/>
		
			<use xlink:href="#Star"  width="2.83" height="2.83" x="-1.42" y="-1.42" transform="matrix(0.801 0 0 -0.654 64.462 60.9803)" style="overflow:visible;"/>
		
			<use xlink:href="#Star"  width="2.83" height="2.83" x="-1.42" y="-1.42" transform="matrix(0.801 0 0 -0.654 60.4064 52.9758)" style="overflow:visible;"/>
		
			<use xlink:href="#Star"  width="2.83" height="2.83" x="-1.42" y="-1.42" transform="matrix(0.801 0 0 -0.654 57.8594 47.7056)" style="overflow:visible;"/>
		
			<use xlink:href="#Star"  width="2.83" height="2.83" x="-1.42" y="-1.42" transform="matrix(0.801 0 0 -0.654 77.3786 55.7083)" style="overflow:visible;"/>
		
			<use xlink:href="#Star"  width="2.83" height="2.83" x="-1.42" y="-1.42" transform="matrix(0.801 0 0 -0.654 110.7577 75.2552)" style="overflow:visible;"/>
		
			<use xlink:href="#Star"  width="2.83" height="2.83" x="-1.42" y="-1.42" transform="matrix(0.801 0 0 -0.654 140.7239 84.55)" style="overflow:visible;"/>
		
			<use xlink:href="#Star"  width="2.83" height="2.83" x="-1.42" y="-1.42" transform="matrix(0.801 0 0 -0.654 173.1938 77.4866)" style="overflow:visible;"/>
		
			<use xlink:href="#Star"  width="2.83" height="2.83" x="-1.42" y="-1.42" transform="matrix(0.801 0 0 -0.654 194.0338 62.3744)" style="overflow:visible;"/>
		
			<use xlink:href="#Star"  width="2.83" height="2.83" x="-1.42" y="-1.42" transform="matrix(0.801 0 0 -0.654 202.512 41.1757)" style="overflow:visible;"/>
		
			<use xlink:href="#Star"  width="2.83" height="2.83" x="-1.42" y="-1.42" transform="matrix(0.801 0 0 -0.654 202.6225 9.8405)" style="overflow:visible;"/>
		
			<use xlink:href="#Star"  width="2.83" height="2.83" x="-1.42" y="-1.42" transform="matrix(0.801 0 0 -0.654 213.2633 8.9602)" style="overflow:visible;"/>
		
			<use xlink:href="#Star"  width="2.83" height="2.83" x="-1.42" y="-1.42" transform="matrix(0.801 0 0 -0.654 234.437 30.0087)" style="overflow:visible;"/>
		
			<use xlink:href="#Star"  width="2.83" height="2.83" x="-1.42" y="-1.42" transform="matrix(0.801 0 0 -0.654 237.3408 59.4489)" style="overflow:visible;"/>
		
			<use xlink:href="#Star"  width="2.83" height="2.83" x="-1.42" y="-1.42" transform="matrix(0.801 0 0 -0.654 233.6101 79.541)" style="overflow:visible;"/>
		
			<use xlink:href="#Star"  width="2.83" height="2.83" x="-1.42" y="-1.42" transform="matrix(0.801 0 0 -0.654 159.4547 79.5576)" style="overflow:visible;"/>
		
			<use xlink:href="#Star"  width="2.83" height="2.83" x="-1.42" y="-1.42" transform="matrix(0.801 0 0 -0.654 100.8862 119.0598)" style="overflow:visible;"/>
		
			<use xlink:href="#Star"  width="2.83" height="2.83" x="-1.42" y="-1.42" transform="matrix(0.801 0 0 -0.654 73.9238 158.7345)" style="overflow:visible;"/>
		
			<use xlink:href="#Star"  width="2.83" height="2.83" x="-1.42" y="-1.42" transform="matrix(0.801 0 0 -0.654 53.9861 181.0175)" style="overflow:visible;"/>
		
			<use xlink:href="#Star"  width="2.83" height="2.83" x="-1.42" y="-1.42" transform="matrix(0.801 0 0 -0.654 28.8047 193.1882)" style="overflow:visible;"/>
		
			<use xlink:href="#Star"  width="2.83" height="2.83" x="-1.42" y="-1.42" transform="matrix(0.801 0 0 -0.654 20.7575 215.055)" style="overflow:visible;"/>
		
			<use xlink:href="#Star"  width="2.83" height="2.83" x="-1.42" y="-1.42" transform="matrix(0.801 0 0 -0.654 40.6743 242.5352)" style="overflow:visible;"/>
		
			<use xlink:href="#Star"  width="2.83" height="2.83" x="-1.42" y="-1.42" transform="matrix(0.801 0 0 -0.654 76.7455 243.4672)" style="overflow:visible;"/>
		
			<use xlink:href="#Star"  width="2.83" height="2.83" x="-1.42" y="-1.42" transform="matrix(0.801 0 0 -0.654 87.3705 238.7977)" style="overflow:visible;"/>
		
			<use xlink:href="#Star"  width="2.83" height="2.83" x="-1.42" y="-1.42" transform="matrix(0.801 0 0 -0.654 90.9613 252.9096)" style="overflow:visible;"/>
		
			<use xlink:href="#Star"  width="2.83" height="2.83" x="-1.42" y="-1.42" transform="matrix(0.801 0 0 -0.654 93.058 277.5168)" style="overflow:visible;"/>
		
			<use xlink:href="#Star"  width="2.83" height="2.83" x="-1.42" y="-1.42" transform="matrix(0.801 0 0 -0.654 84.89 294.6051)" style="overflow:visible;"/>
		
			<use xlink:href="#Star"  width="2.83" height="2.83" x="-1.42" y="-1.42" transform="matrix(0.801 0 0 -0.654 74.5219 288.9392)" style="overflow:visible;"/>
		
			<use xlink:href="#Star"  width="2.83" height="2.83" x="-1.42" y="-1.42" transform="matrix(0.801 0 0 -0.654 65.9604 230.0277)" style="overflow:visible;"/>
		
			<use xlink:href="#Star"  width="2.83" height="2.83" x="-1.42" y="-1.42" transform="matrix(0.801 0 0 -0.654 98.397 196.8138)" style="overflow:visible;"/>
		
			<use xlink:href="#Star"  width="2.83" height="2.83" x="-1.42" y="-1.42" transform="matrix(0.801 0 0 -0.654 120.1771 200.0405)" style="overflow:visible;"/>
		
			<use xlink:href="#Star"  width="2.83" height="2.83" x="-1.42" y="-1.42" transform="matrix(0.801 0 0 -0.654 169.9623 241.1507)" style="overflow:visible;"/>
		
			<use xlink:href="#Star"  width="2.83" height="2.83" x="-1.42" y="-1.42" transform="matrix(0.801 0 0 -0.654 204.1451 270.0296)" style="overflow:visible;"/>
		
			<use xlink:href="#Star"  width="2.83" height="2.83" x="-1.42" y="-1.42" transform="matrix(0.801 0 0 -0.654 248.1017 289.7508)" style="overflow:visible;"/>
		
			<use xlink:href="#Star"  width="2.83" height="2.83" x="-1.42" y="-1.42" transform="matrix(0.801 0 0 -0.654 268.0802 297.3202)" style="overflow:visible;"/>
		
			<use xlink:href="#Star"  width="2.83" height="2.83" x="-1.42" y="-1.42" transform="matrix(0.801 0 0 -0.654 269.2145 304.0073)" style="overflow:visible;"/>
		
			<use xlink:href="#Star"  width="2.83" height="2.83" x="-1.42" y="-1.42" transform="matrix(0.801 0 0 -0.654 261.0471 315.961)" style="overflow:visible;"/>
		
			<use xlink:href="#Star"  width="2.83" height="2.83" x="-1.42" y="-1.42" transform="matrix(0.801 0 0 -0.654 234.259 318.6259)" style="overflow:visible;"/>
		
			<use xlink:href="#Star"  width="2.83" height="2.83" x="-1.42" y="-1.42" transform="matrix(0.801 0 0 -0.654 214.4057 291.5567)" style="overflow:visible;"/>
		
			<use xlink:href="#Star"  width="2.83" height="2.83" x="-1.42" y="-1.42" transform="matrix(0.801 0 0 -0.654 209.3648 261.009)" style="overflow:visible;"/>
		
			<use xlink:href="#Star"  width="2.83" height="2.83" x="-1.42" y="-1.42" transform="matrix(0.801 0 0 -0.654 222.0423 245.538)" style="overflow:visible;"/>
		
			<use xlink:href="#Star"  width="2.83" height="2.83" x="-1.42" y="-1.42" transform="matrix(0.801 0 0 -0.654 248.7874 235.5866)" style="overflow:visible;"/>
		
			<use xlink:href="#Star"  width="2.83" height="2.83" x="-1.42" y="-1.42" transform="matrix(0.801 0 0 -0.654 270.932 224.0908)" style="overflow:visible;"/>
		
			<use xlink:href="#Star"  width="2.83" height="2.83" x="-1.42" y="-1.42" transform="matrix(0.801 0 0 -0.654 279.652 206.1412)" style="overflow:visible;"/>
		
			<use xlink:href="#Star"  width="2.83" height="2.83" x="-1.42" y="-1.42" transform="matrix(0.801 0 0 -0.654 230.8733 209.131)" style="overflow:visible;"/>
		
			<use xlink:href="#Star"  width="2.83" height="2.83" x="-1.42" y="-1.42" transform="matrix(0.801 0 0 -0.654 144.3419 229.5221)" style="overflow:visible;"/>
		
			<use xlink:href="#Star"  width="2.83" height="2.83" x="-1.42" y="-1.42" transform="matrix(0.801 0 0 -0.654 104.9478 231.5127)" style="overflow:visible;"/>
		
			<use xlink:href="#Star"  width="2.83" height="2.83" x="-1.42" y="-1.42" transform="matrix(0.801 0 0 -0.654 96.9258 216.6753)" style="overflow:visible;"/>
		
			<use xlink:href="#Star"  width="2.83" height="2.83" x="-1.42" y="-1.42" transform="matrix(0.801 0 0 -0.654 204.6816 165.4046)" style="overflow:visible;"/>
		
			<use xlink:href="#Star"  width="2.83" height="2.83" x="-1.42" y="-1.42" transform="matrix(0.801 0 0 -0.654 275.1645 184.3143)" style="overflow:visible;"/>
		
			<use xlink:href="#Star"  width="2.83" height="2.83" x="-1.42" y="-1.42" transform="matrix(0.801 0 0 -0.654 302.2426 211.9934)" style="overflow:visible;"/>
		
			<use xlink:href="#Star"  width="2.83" height="2.83" x="-1.42" y="-1.42" transform="matrix(0.801 0 0 -0.654 310.9026 227.1826)" style="overflow:visible;"/>
		
			<use xlink:href="#Star"  width="2.83" height="2.83" x="-1.42" y="-1.42" transform="matrix(0.801 0 0 -0.654 333.6922 235.9482)" style="overflow:visible;"/>
		
			<use xlink:href="#Star"  width="2.83" height="2.83" x="-1.42" y="-1.42" transform="matrix(0.801 0 0 -0.654 364.6024 235.9654)" style="overflow:visible;"/>
		
			<use xlink:href="#Star"  width="2.83" height="2.83" x="-1.42" y="-1.42" transform="matrix(0.801 0 0 -0.654 373.5874 241.3145)" style="overflow:visible;"/>
		
			<use xlink:href="#Star"  width="2.83" height="2.83" x="-1.42" y="-1.42" transform="matrix(0.801 0 0 -0.654 383.4305 256.1221)" style="overflow:visible;"/>
		
			<use xlink:href="#Star"  width="2.83" height="2.83" x="-1.42" y="-1.42" transform="matrix(0.801 0 0 -0.654 382.5775 263.5705)" style="overflow:visible;"/>
		
			<use xlink:href="#Star"  width="2.83" height="2.83" x="-1.42" y="-1.42" transform="matrix(0.801 0 0 -0.654 372.8404 266.7431)" style="overflow:visible;"/>
		
			<use xlink:href="#Star"  width="2.83" height="2.83" x="-1.42" y="-1.42" transform="matrix(0.801 0 0 -0.654 358.0219 262.4773)" style="overflow:visible;"/>
		
			<use xlink:href="#Star"  width="2.83" height="2.83" x="-1.42" y="-1.42" transform="matrix(0.801 0 0 -0.654 353.561 228.5407)" style="overflow:visible;"/>
		
			<use xlink:href="#Star"  width="2.83" height="2.83" x="-1.42" y="-1.42" transform="matrix(0.801 0 0 -0.654 356.7809 206.2822)" style="overflow:visible;"/>
		
			<use xlink:href="#Star"  width="2.83" height="2.83" x="-1.42" y="-1.42" transform="matrix(0.801 0 0 -0.654 359.5894 190.8364)" style="overflow:visible;"/>
		
			<use xlink:href="#Star"  width="2.83" height="2.83" x="-1.42" y="-1.42" transform="matrix(0.801 0 0 -0.654 333.9984 174.3853)" style="overflow:visible;"/>
		
			<use xlink:href="#Star"  width="2.83" height="2.83" x="-1.42" y="-1.42" transform="matrix(0.801 0 0 -0.654 272.2596 162.111)" style="overflow:visible;"/>
		
			<use xlink:href="#Star"  width="2.83" height="2.83" x="-1.42" y="-1.42" transform="matrix(0.801 0 0 -0.654 269.407 141.0779)" style="overflow:visible;"/>
		
			<use xlink:href="#Star"  width="2.83" height="2.83" x="-1.42" y="-1.42" transform="matrix(0.801 0 0 -0.654 298.7192 125.0277)" style="overflow:visible;"/>
		
			<use xlink:href="#Star"  width="2.83" height="2.83" x="-1.42" y="-1.42" transform="matrix(0.801 0 0 -0.654 331.3657 124.6689)" style="overflow:visible;"/>
		
			<use xlink:href="#Star"  width="2.83" height="2.83" x="-1.42" y="-1.42" transform="matrix(0.801 0 0 -0.654 357.0755 130.1407)" style="overflow:visible;"/>
		
			<use xlink:href="#Star"  width="2.83" height="2.83" x="-1.42" y="-1.42" transform="matrix(0.801 0 0 -0.654 373.0622 140.0171)" style="overflow:visible;"/>
		
			<use xlink:href="#Star"  width="2.83" height="2.83" x="-1.42" y="-1.42" transform="matrix(0.801 0 0 -0.654 384.5171 144.7837)" style="overflow:visible;"/>
		
			<use xlink:href="#Star"  width="2.83" height="2.83" x="-1.42" y="-1.42" transform="matrix(0.801 0 0 -0.654 401.7385 145.2827)" style="overflow:visible;"/>
		
			<use xlink:href="#Star"  width="2.83" height="2.83" x="-1.42" y="-1.42" transform="matrix(0.801 0 0 -0.654 416.3855 140.2951)" style="overflow:visible;"/>
		
			<use xlink:href="#Star"  width="2.83" height="2.83" x="-1.42" y="-1.42" transform="matrix(0.801 0 0 -0.654 391.1297 127.2386)" style="overflow:visible;"/>
		
			<use xlink:href="#Star"  width="2.83" height="2.83" x="-1.42" y="-1.42" transform="matrix(0.801 0 0 -0.654 357.8433 120.2898)" style="overflow:visible;"/>
		
			<use xlink:href="#Star"  width="2.83" height="2.83" x="-1.42" y="-1.42" transform="matrix(0.801 0 0 -0.654 346.2236 111.6988)" style="overflow:visible;"/>
		
			<use xlink:href="#Star"  width="2.83" height="2.83" x="-1.42" y="-1.42" transform="matrix(0.801 0 0 -0.654 344.431 97.8077)" style="overflow:visible;"/>
		
			<use xlink:href="#Star"  width="2.83" height="2.83" x="-1.42" y="-1.42" transform="matrix(0.801 0 0 -0.654 358.2741 87.3543)" style="overflow:visible;"/>
		
			<use xlink:href="#Star"  width="2.83" height="2.83" x="-1.42" y="-1.42" transform="matrix(0.801 0 0 -0.654 354.7356 83.269)" style="overflow:visible;"/>
		
			<use xlink:href="#Star"  width="2.83" height="2.83" x="-1.42" y="-1.42" transform="matrix(0.801 0 0 -0.654 331.1517 78.1994)" style="overflow:visible;"/>
		
			<use xlink:href="#Star"  width="2.83" height="2.83" x="-1.42" y="-1.42" transform="matrix(0.801 0 0 -0.654 266.5121 75.1632)" style="overflow:visible;"/>
		
			<use xlink:href="#Star"  width="2.83" height="2.83" x="-1.42" y="-1.42" transform="matrix(0.801 0 0 -0.654 258.1732 66.1393)" style="overflow:visible;"/>
		
			<use xlink:href="#Star"  width="2.83" height="2.83" x="-1.42" y="-1.42" transform="matrix(0.801 0 0 -0.654 261.7366 61.8862)" style="overflow:visible;"/>
		
			<use xlink:href="#Star"  width="2.83" height="2.83" x="-1.42" y="-1.42" transform="matrix(0.801 0 0 -0.654 320.2294 61.3099)" style="overflow:visible;"/>
		
			<use xlink:href="#Star"  width="2.83" height="2.83" x="-1.42" y="-1.42" transform="matrix(0.801 0 0 -0.654 333.9 56.4227)" style="overflow:visible;"/>
		
			<use xlink:href="#Star"  width="2.83" height="2.83" x="-1.42" y="-1.42" transform="matrix(0.801 0 0 -0.654 339.7607 50.6767)" style="overflow:visible;"/>
		
			<use xlink:href="#Star"  width="2.83" height="2.83" x="-1.42" y="-1.42" transform="matrix(0.801 0 0 -0.654 333.6801 48.8809)" style="overflow:visible;"/>
		
			<use xlink:href="#Star"  width="2.83" height="2.83" x="-1.42" y="-1.42" transform="matrix(0.801 0 0 -0.654 315.6764 72.3787)" style="overflow:visible;"/>
		
			<use xlink:href="#Star"  width="2.83" height="2.83" x="-1.42" y="-1.42" transform="matrix(0.801 0 0 -0.654 293.0723 105.0433)" style="overflow:visible;"/>
		
			<use xlink:href="#Star"  width="2.83" height="2.83" x="-1.42" y="-1.42" transform="matrix(0.801 0 0 -0.654 272.6452 145.8187)" style="overflow:visible;"/>
		
			<use xlink:href="#Star"  width="2.83" height="2.83" x="-1.42" y="-1.42" transform="matrix(0.801 0 0 -0.654 213.7584 193.3483)" style="overflow:visible;"/>
		
			<use xlink:href="#Star"  width="2.83" height="2.83" x="-1.42" y="-1.42" transform="matrix(0.801 0 0 -0.654 135.6499 198.3774)" style="overflow:visible;"/>
		
			<use xlink:href="#Star"  width="2.83" height="2.83" x="-1.42" y="-1.42" transform="matrix(0.801 0 0 -0.654 101.1558 207.215)" style="overflow:visible;"/>
		
			<use xlink:href="#Star"  width="2.83" height="2.83" x="-1.42" y="-1.42" transform="matrix(0.801 0 0 -0.654 71.6746 231.2799)" style="overflow:visible;"/>
		
			<use xlink:href="#Star"  width="2.83" height="2.83" x="-1.42" y="-1.42" transform="matrix(0.801 0 0 -0.654 56.5588 244.6736)" style="overflow:visible;"/>
		
			<use xlink:href="#Star"  width="2.83" height="2.83" x="-1.42" y="-1.42" transform="matrix(0.801 0 0 -0.654 37.2575 249.8643)" style="overflow:visible;"/>
		
			<use xlink:href="#Star"  width="2.83" height="2.83" x="-1.42" y="-1.42" transform="matrix(0.801 0 0 -0.654 22.7671 252.4149)" style="overflow:visible;"/>
		
			<use xlink:href="#Star"  width="2.83" height="2.83" x="-1.42" y="-1.42" transform="matrix(0.801 0 0 -0.654 24.6426 261.2055)" style="overflow:visible;"/>
		
			<use xlink:href="#Star"  width="2.83" height="2.83" x="-1.42" y="-1.42" transform="matrix(0.801 0 0 -0.654 93.9291 257.5344)" style="overflow:visible;"/>
		
			<use xlink:href="#Star"  width="2.83" height="2.83" x="-1.42" y="-1.42" transform="matrix(0.801 0 0 -0.654 157.514 227.3233)" style="overflow:visible;"/>
		
			<use xlink:href="#Star"  width="2.83" height="2.83" x="-1.42" y="-1.42" transform="matrix(0.801 0 0 -0.654 179.1589 230.6841)" style="overflow:visible;"/>
		
			<use xlink:href="#Star"  width="2.83" height="2.83" x="-1.42" y="-1.42" transform="matrix(0.801 0 0 -0.654 175.7447 249.2812)" style="overflow:visible;"/>
		
			<use xlink:href="#Star"  width="2.83" height="2.83" x="-1.42" y="-1.42" transform="matrix(0.801 0 0 -0.654 177.9983 284.1494)" style="overflow:visible;"/>
		
			<use xlink:href="#Star"  width="2.83" height="2.83" x="-1.42" y="-1.42" transform="matrix(0.801 0 0 -0.654 224.2291 309.8493)" style="overflow:visible;"/>
		
			<use xlink:href="#Star"  width="2.83" height="2.83" x="-1.42" y="-1.42" transform="matrix(0.801 0 0 -0.654 253.968 311.3024)" style="overflow:visible;"/>
		
			<use xlink:href="#Star"  width="2.83" height="2.83" x="-1.42" y="-1.42" transform="matrix(0.801 0 0 -0.654 255.5387 317.0244)" style="overflow:visible;"/>
		
			<use xlink:href="#Star"  width="2.83" height="2.83" x="-1.42" y="-1.42" transform="matrix(0.801 0 0 -0.654 262.2885 330.6457)" style="overflow:visible;"/>
		
			<use xlink:href="#Star"  width="2.83" height="2.83" x="-1.42" y="-1.42" transform="matrix(0.801 0 0 -0.654 277.2652 338.4582)" style="overflow:visible;"/>
		
			<use xlink:href="#Star"  width="2.83" height="2.83" x="-1.42" y="-1.42" transform="matrix(0.801 0 0 -0.654 286.688 331.5777)" style="overflow:visible;"/>
		
			<use xlink:href="#Star"  width="2.83" height="2.83" x="-1.42" y="-1.42" transform="matrix(0.801 0 0 -0.654 280.3942 308.6198)" style="overflow:visible;"/>
		
			<use xlink:href="#Star"  width="2.83" height="2.83" x="-1.42" y="-1.42" transform="matrix(0.801 0 0 -0.654 248.8987 270.8502)" style="overflow:visible;"/>
		
			<use xlink:href="#Star"  width="2.83" height="2.83" x="-1.42" y="-1.42" transform="matrix(0.801 0 0 -0.654 212.8309 184.2155)" style="overflow:visible;"/>
		
			<use xlink:href="#Star"  width="2.83" height="2.83" x="-1.42" y="-1.42" transform="matrix(0.801 0 0 -0.654 205.6196 55.2014)" style="overflow:visible;"/>
		
			<use xlink:href="#Star"  width="2.83" height="2.83" x="-1.42" y="-1.42" transform="matrix(0.801 0 0 -0.654 195.6001 56.0351)" style="overflow:visible;"/>
		
			<use xlink:href="#Star"  width="2.83" height="2.83" x="-1.42" y="-1.42" transform="matrix(0.801 0 0 -0.654 139.5693 76.2306)" style="overflow:visible;"/>
		
			<use xlink:href="#Star"  width="2.83" height="2.83" x="-1.42" y="-1.42" transform="matrix(0.801 0 0 -0.654 60.3988 74.8958)" style="overflow:visible;"/>
		
			<use xlink:href="#Star"  width="2.83" height="2.83" x="-1.42" y="-1.42" transform="matrix(0.801 0 0 -0.654 39.1645 64.3703)" style="overflow:visible;"/>
		
			<use xlink:href="#Star"  width="2.83" height="2.83" x="-1.42" y="-1.42" transform="matrix(0.801 0 0 -0.654 39.2221 72.9628)" style="overflow:visible;"/>
		
			<use xlink:href="#Star"  width="2.83" height="2.83" x="-1.42" y="-1.42" transform="matrix(0.801 0 0 -0.654 34.8209 97.8995)" style="overflow:visible;"/>
		
			<use xlink:href="#Star"  width="2.83" height="2.83" x="-1.42" y="-1.42" transform="matrix(0.801 0 0 -0.654 32.2693 104.6792)" style="overflow:visible;"/>
		
			<use xlink:href="#Star"  width="2.83" height="2.83" x="-1.42" y="-1.42" transform="matrix(0.801 0 0 -0.654 37.6159 105.0678)" style="overflow:visible;"/>
	</g>
</g>
<g>
	<polygon class="st3" points="324.32,158.76 338.48,177.44 344.89,184.99 361.69,189.67 369.7,194 374.06,183.77 359.99,179.78 
		347.95,173.19 330.61,154.53 	"/>
	<polygon class="st4" points="307.23,157.29 320.38,172.62 339.47,179.79 348.87,168.97 340.71,154.11 323.47,146.06 	"/>
	<path class="st5" d="M348.08,188.25c0.97-4.34,2.29-8.85,4.05-13.46c0.26-0.68,0.53-1.36,0.8-2.03c8.53,3.4,15.5,5.15,20.57,6.12
		c2.66,0.51,4.58,0.77,5.87,2.26c1.74,2.01,1.16,4.94-4.41,17.21c-5.12,11.31-6.66,13.31-8.68,13.23c-2.7-0.1-4.77-3.85-5.37-4.92
		c-3.41-6.15-0.13-12.28,0.44-13.3C356.93,191.66,352.5,189.95,348.08,188.25z"/>
	<polygon class="st3" points="205.99,175.2 220.16,193.88 226.56,201.43 243.36,206.11 251.37,210.44 255.73,200.2 241.66,196.22 
		229.62,189.62 212.29,170.96 	"/>
	<polygon class="st4" points="193.87,174.09 207.03,189.42 214.56,194.7 224.82,192.29 230.68,182.73 221.79,168.6 	"/>
	<path class="st5" d="M229.81,203.32c0.97-4.34,2.29-8.85,4.05-13.46c0.26-0.68,0.53-1.36,0.8-2.03c8.53,3.4,15.5,5.15,20.57,6.12
		c2.66,0.51,4.58,0.77,5.87,2.26c1.74,2.01,1.16,4.94-4.41,17.21c-5.12,11.31-6.66,13.31-8.68,13.23c-2.7-0.1-4.77-3.85-5.37-4.92
		c-3.41-6.15-0.13-12.28,0.44-13.3C238.65,206.73,234.23,205.03,229.81,203.32z"/>
	<polygon class="st6" points="169.82,186.41 175.32,213.76 185.5,223.27 191.1,231.1 199.14,237.58 208.62,230.01 197.72,219.23 
		188,207.81 182.38,183.46 	"/>
	<polygon class="st6" points="307.52,165.17 315.78,188.99 321.32,199.36 325.57,212.49 327.98,219.69 340.34,214.45 332.92,197.04 
		322.9,177.92 314.66,161.78 	"/>
	<path class="st7" d="M189.44,98.74"/>
	<path class="st8" d="M141.9,62.13"/>
	<polygon class="st3" points="182.67,59.24 179.57,58.29 180.34,56.72 178.78,58.41 178.01,55.71 177.57,57.99 176.08,56.66 
		174.39,58.37 173.23,58.49 173.76,57.26 173.23,55.13 171.69,56.97 170.72,56.94 169.67,55.01 168.75,55.25 168.12,55.92 
		168.12,57.31 168.12,59.28 167.3,58.4 165.42,57.54 164.74,57.01 164.45,59.16 163.34,59.98 160.79,59.89 159.58,59.85 
		158.67,58.86 157.27,57.59 157.27,59.94 155.87,58.61 155.87,60.32 154.28,59.73 154.28,61.01 152.64,60.32 150.13,59.65 
		149.41,60.85 149.41,62.35 145.55,62.22 145.26,62.85 147.48,63.62 147.96,64.38 147.43,65.27 146.27,65.23 145.26,65.2 
		145.26,66.75 144.72,66.42 144.39,67.52 144,68.04 143.81,69.16 142.94,68.43 142.94,69.56 142.26,69 142.79,70.89 141.78,70.85 
		142.31,71.3 140.82,71.25 141.95,72.02 140.81,72.96 141.95,74.6 140.23,74.54 141.94,76.14 139.85,76.07 141.53,77.04 
		140.28,77.69 153.44,112.23 161.44,127.53 161.86,135.31 163.07,147.63 164.29,156.44 165.45,164.8 166.46,172.08 165.34,180.67 
		166.31,187.67 168.13,200.78 176.68,205.03 186.4,201.7 205.47,171.88 232.05,178.97 242.72,175.48 252.63,173.56 261.02,174.94 
		268.04,174.7 277.16,174.16 285.12,171.83 292.54,171.88 295.21,167.96 300.23,172.65 305.31,182.28 309.5,188.47 315.69,193.17 
		325.47,191.81 331.48,186.81 332.96,175.97 328.79,153.88 330.01,141.6 329.87,122.53 324.52,102.07 308.44,91.77 275.25,91.79 
		258.71,95.92 241.05,100.06 230.25,100.1 218.48,105.66 209.55,93.69 	"/>
	<path class="st9" d="M216.29,90.91c-1.73-12.79,20.33-25.49,44.82-28.81c4.96-0.67,25.09-4.42,38.67,1.67
		c4.5,2.02,7.69,7.22,8.8,15.5c1.03,7.65-3.14,17.39-6.51,20.58c-11.07,10.48-28.47,8.2-34.69,8.58c-8.61,0.53-36.15,0.8-45.11-1.69
		c-6.19-1.72-4-2.86-7.54-5.93C212.37,98.78,216.64,93.51,216.29,90.91z"/>
	<path class="st10" d="M173.34,71.87c-0.95-0.22-2.28-0.49-3.88-0.71c-2.79-0.38-5.54-0.49-10.71-0.17
		c-7.82,0.47-11.73,0.71-13.94,2.15c-0.5,0.32-2.09,1.53-5.27,3.93c-0.54,0.41-1.16,0.89-1.9,1.63c-1.21,1.21-2.02,2.42-2.48,3.18
		c-0.98,1.63-0.72,1.8-1.59,3c-0.34,0.47-0.37,0.43-2.14,2.33c-0.79,0.85-1.36,1.48-2.03,2.29c-1.08,1.31-1.35,1.81-1.47,2.41
		c-0.18,0.83,0.11,0.95-0.03,1.66c-0.3,1.49-1.71,1.54-2.48,2.94c-0.38,0.69,0.03,0.56-0.07,4.42c-0.03,1.25-0.1,2.27-0.07,4.09
		c0.01,0.44,0.02,0.8,0.03,1.05l3.04,0.66l-1.11,0.53l0.52,2.11c0.26,0.44,0.65,1.03,1.19,1.68c0.59,0.71,1.01,1.22,1.74,1.68
		c0.36,0.23,1.05,0.61,1.98,0.8c0.74,0.15,1.07,0.06,2.43,0.04c1.88-0.03,1.92,0.12,2.65,0.04c0.84-0.09,2.01-0.43,3.37-1.57
		l2.62,0.56l9.73-0.36l3.26-8.27c0.78-0.82,2.06-1.92,3.87-2.48c2.1-0.65,3.11-0.01,4.73-0.14c3.47-0.29,4.9-3.72,10.34-9.84
		c1.24-1.39,3.16-3.46,5.73-5.85l-0.45-6.3L173.34,71.87z"/>
	<path class="st11" d="M174.03,82.95c-0.42-0.88-0.85-1.56-1.19-2.03c-0.63-0.89-0.96-1.34-1.6-1.7c-0.6-0.34-1.17-0.44-1.75-0.53
		c-0.56-0.09-1.02-0.16-1.59-0.03c-0.14,0.03-0.49,0.2-1.2,0.54c-0.9,0.43-1.06,0.53-1.25,0.67c-0.38,0.29-0.62,0.61-0.77,0.83
		c0.27,0.33,0.65,0.75,1.15,1.19c0.28,0.25,0.68,0.6,1.24,0.94c0.72,0.44,1.38,0.84,2.25,0.87c1.07,0.04,1.9-0.51,2.27-0.8
		l1.83,0.87L174.03,82.95z"/>
	<path class="st12" d="M171.62,81.52c-0.11,0.24-0.38,0.72-0.94,1.07c-0.91,0.58-1.87,0.36-2.1,0.3c-0.85-0.21-1.35-0.77-1.7-1.16
		c-0.47-0.52-0.72-1.05-0.85-1.4c0.18-0.23,0.56-0.65,1.19-0.9c1.02-0.41,1.96-0.07,2.26,0.04c0.69,0.25,1.15,0.66,1.41,0.94
		L171.62,81.52z"/>
	<path class="st13" d="M170.65,80.24c0.04,0.2,0.08,0.59-0.07,1.04c-0.11,0.34-0.29,0.59-0.41,0.72c-0.1,0.02-0.41,0.08-0.66,0.35
		c-0.23,0.24-0.29,0.52-0.31,0.62l-0.82-0.15c-0.26-0.11-0.64-0.29-1.02-0.61c-0.34-0.29-0.55-0.56-0.69-0.75
		c-0.19-0.25-0.43-0.63-0.63-1.13c0.14-0.19,0.41-0.48,0.82-0.72c0.15-0.09,0.61-0.34,1.26-0.38c0.52-0.03,0.91,0.08,1.16,0.16
		c0.25,0.08,0.62,0.19,1,0.49C170.44,80.02,170.56,80.15,170.65,80.24z"/>
	<polygon class="st10" points="168.18,79.44 167.97,79.82 167.59,80.01 167.97,80.23 168.16,80.6 168.38,80.23 168.75,80.03 
		168.38,79.82 	"/>
	<polygon class="st11" points="125.31,106.05 127.74,106.19 130.15,106.38 136.18,105.45 141.79,103.71 144.06,102.25 
		144.09,100.74 145.25,102.16 148.13,103.06 144.74,103.01 142.72,104.18 139.05,105.34 135.21,106.01 132.34,106.41 130.02,106.77 
		128.35,106.71 	"/>
	<path class="st3" d="M127.1,94.92c1.87-0.82,3.46-0.96,4.4-0.97c1.62-0.02,3.2-0.03,4.13,1.1c0.77,0.94,0.77,2.28,0.47,3.19
		c-0.59,1.78-2.68,3.01-5.16,2.88l-2.53,0.48l-2.79,1.51l-0.01-4.63c-0.07-0.19-0.38-1.12,0.07-2.13
		C126.11,95.42,126.89,95.02,127.1,94.92z"/>
	<g>
		<path class="st11" d="M196.57,98.21c0.57-0.61,6-7.38,2.84-13.65c-2.84-5.64-10.14-5.94-12.36-6.03
			c-2.55-0.11-4.68,0.37-6.12,0.83c-0.34-0.33-0.85-0.81-1.46-1.42c-0.81-0.8-1.29-1.28-1.96-1.95c-0.57-0.57-1.39-1.38-2.4-2.37
			c-0.96-0.78-2.31-1.65-4.06-2.11c-2.63-0.69-4.07,0.1-4.35-0.39c-0.77-1.38,8.25-12.05,20.31-12.37
			c5.84-0.15,10.26,2.36,13.84,3.97c3.85,1.73,8.88,6,11.63,9.49c2.61,3.32,4.85,8.57,5.47,12.75c0.77,5.21-1.29,10.96-3.23,15.86
			c-2.33,5.88-5.85,8.36-11.77,10.59c-3.7,1.39-6.8,1.48-10.76,1.46c-4.08-0.03-7.23-2.36-10.75-4.43c-3.51-2.07-5.81-6.2-5.6-10.27
			c0.19-3.64,2.94-8.64,7.14-10.88c3-1.6,9.03-2.01,11.48-1.42c2.14,0.51,7.68,2.94,9.32,4.89c1.22,1.45,5.14,6.46,4.88,7.94
			c-0.08,0.45,0.36,6.14-0.75,7.66c-1.02,1.4-0.8,2.34-2.56,3.09c-4.31,1.86-6.19,2.81-9.16,2.19c-2.92-0.61-2.92-0.61-0.4-2.05
			c0.28-0.16,1.84-1.22,3.23-2.85c0.52-0.61,0.82-0.96,1.1-1.56c0.61-1.28,0.55-2.47,0.53-2.95c-0.02-0.35-0.11-1.31-0.63-2.42
			c-0.52-1.12-1.22-1.8-1.49-2.05c-1.72-1.59-3.78-1.72-4.71-1.78c-0.84-0.05-1.74-0.1-2.65,0.42c-0.34,0.19-1.26,0.72-1.31,1.61
			c-0.07,1.09,1.21,1.8,1.32,1.85c0.9,0.48,1.82,0.28,2.42,0.15c0.82-0.18,1.39-0.54,1.72-0.75C195.34,99.24,196,98.82,196.57,98.21
			z"/>
	</g>
	<polygon class="st11" points="133.47,95.55 133.44,97.79 131.99,98.76 129.75,98.72 127.03,100.02 127.59,98.69 130.66,97.79 
		132.19,97.01 	"/>
	<path class="st14" d="M120.27,99.46c-0.33,20.29,12,23.42,14.11,23.33c3.94-0.17,13.9-0.68,29.82-4.52
		c15.02-3.63,13.57-4.57,18.47-6c15.56-4.53,37.68-13.99,39.18-30.42c0.29-3.17-1-7.96-1.23-8.89c-1.63-6.53-5.8-13.37-20.43-21.01
		c-16.54-8.64-24.95-8.83-32.94-8.96C139.9,42.53,120.67,74.87,120.27,99.46z"/>
	<path class="st15" d="M144.99,121.77c2.02,1.56,4.36-3.17,20.84-3.65c15.45-0.45,12.89-1.89,17.79-3.32
		c15.56-4.53,37.4-16.5,38.91-32.93c0.29-3.17-1-7.96-1.23-8.89c-2.71-10.85-12.33-16.12-20.43-21.01
		c-5.48-3.32-12.52-8.05-24.82-10.38L174.98,42c0,0-0.7,0.79-0.51,1.79c2.35,1.88,5.78,5.89,8.71,10.3
		c1.27,1.92,4.1,5.81,5.17,11.24c1.33,6.74,1.43,12.47-1.23,19.32c-5.25,11.69-7.44,18.95-11.42,21.49
		C163.23,114.08,159.93,116.95,144.99,121.77z"/>
	<path class="st9" d="M149.3,120.63c3.44-0.73,1.66-0.46,8.48-2.99c2.23-0.83-4,1.18,10.85-3.23c3.7-1.1,7.93-2.35,12.57-4.34
		c4.84-2.08,8.12-4.02,10.66-5.53c7.36-4.39,10.98-6.7,13.39-9.71c1.92-2.39,2.8-4.45,4.27-7.86c2.03-4.71,2.83-8.53,3.75-13.06
		c0.61-3.01,1.3-7.1,1.72-12.03c1.6,1.71,4.08,4.78,5.75,9.26c1.78,4.77,1.83,8.95,1.68,11.34c0.75,0.75,1.49,1.51,2.24,2.26
		c-1.28,1.59-3.12,3.81-5.43,6.42c-3.28,3.7-5.17,5.84-7.76,8.16c-4.29,3.84-8.36,6.26-11.48,8.1c-3.49,2.06-9.78,5.45-18.61,8.54
		c-5.98,2.09-10.54,3.13-17.44,4.71c-10.69,2.45-9.38,2.05-10.98,2.2c-4.02,0.39-4.52,0.51-6.9,0.55c-0.9-0.47-2.13-0.93,0.03-1.91"
		/>
	<path class="st16" d="M216.73,103.47c1.65,1.77,4.53,2.76,5.15,2.96c1.27,0.41,2.22,0.52,8.36,0.99c2.61,0.2,3.92,0.3,4.31,0.32
		c4.03,0.24,7.02,0.27,12.21,0.3c6.55,0.03,9.82,0.05,10.75,0.04c3.65-0.04,7.88-0.22,16.2-0.56c9.51-0.4,10.34-0.48,11.76-0.71
		c7.62-1.26,11.6-3.58,13.67-5.02c2.36-1.64,5.23-4.21,4.8-4.88c-0.51-0.81-5.55,1.74-9.58,3.16c-5.27,1.86-10.28,2.3-32.42-0.63
		c-24.17-3.2-26.89-4.87-29-7.34c-3.7-4.33-6.2-11.88-3.49-16.94c1.52-2.83,4.44-4.42,4.27-4.63c-0.21-0.27-5.2,2.19-9.34,6.25
		C216.36,84.66,211.87,98.24,216.73,103.47z"/>
	<path class="st16" d="M146.16,122.81"/>
	<path class="st16" d="M144.99,121.36c0,0,3.37-1.56,3.47-1.62c0.37-0.23-0.65,1.95,0.06,1.81c0.35-0.07,0.6-0.11,0.83-0.14
		c0.64-0.1,1.28-0.22,1.92-0.32c0.45-0.07,1.99-0.28,3.09-0.56c9.7-2.42,7.9-1.64,16.7-4.32c5.42-1.65,7.95-2.36,12-4.1
		c4.84-2.08,8.99-3.84,11.52-5.35c2.64-1.57,8.47-5.31,13.99-10.17c4.78-4.21,7.26-6.74,7.79-7.6c0,0,5.79-5.64,6.16-7.11l2.11,1.22
		l0.9,2.08c-1.28,1.59-3.12,3.81-5.43,6.42c-3.28,3.7-5.17,5.84-7.76,8.16c-4.29,3.84-8.36,6.26-11.48,8.1
		c-3.49,2.06-9.78,5.45-18.61,8.54c-1.28,0.45-6.68,1.88-17.44,4.71c-11.48,3.03-17.65,3.92-18.86,3.04
		C145.25,123.63,144.35,122.08,144.99,121.36z"/>
	<g>
		<path class="st17" d="M194.64,80.16"/>
	</g>
	<path class="st11" d="M216.24,105.68"/>
	<g>
		<path class="st11" d="M194.7,80.39c-0.09-0.06-2.39-5.68,2.71-10.54c1.52-1.44,8.37-2.98,9.99-2.54c0.88,0.24,1.8,1.11,2.79,2.06
			c0.87,0.83,1.49,1.84,2.35,2.94c2.61,3.32,4.85,8.57,5.47,12.75c0.77,5.21-1.29,10.96-3.23,15.86
			c-2.33,5.88-5.85,8.36-11.77,10.59c-3.7,1.39-6.8,1.48-10.76,1.46c-4.08-0.03-7.23-2.36-10.75-4.43c-3.51-2.07-5.81-6.2-5.6-10.27
			c0.19-3.64,2.94-8.64,7.14-10.88c3-1.6,9.03-2.01,11.48-1.42c2.14,0.51,7.68,2.94,9.32,4.89c1.22,1.45,5.14,6.46,4.88,7.94
			c-0.08,0.45,0.36,6.14-0.75,7.66c-1.02,1.4-0.8,2.34-2.56,3.09c-4.31,1.86-6.19,2.81-9.16,2.19c-2.92-0.61-2.92-0.61-0.4-2.05
			c0.28-0.16,1.84-1.22,3.23-2.85c0.52-0.61,0.82-0.96,1.1-1.56c0.61-1.28,0.55-2.47,0.53-2.95c-0.02-0.35-0.11-1.31-0.63-2.42
			c-0.52-1.12-1.22-1.8-1.49-2.05c-1.72-1.59-3.78-1.72-4.71-1.78c-0.84-0.05-1.74-0.1-2.65,0.42c-0.34,0.19-1.26,0.72-1.31,1.61
			c-0.07,1.09,1.21,1.8,1.32,1.85c0.9,0.48,1.82,0.28,2.42,0.15c0.82-0.18,1.39-0.54,1.72-0.75c0,0,0.66-0.42,1.23-1.03
			c0.57-0.61,6.17-7.47,2.84-13.65c-1.28-2.37-4.78-4.25-4.78-4.25"/>
	</g>
	<path class="st9" d="M209.67,68.2c0,0-7.79-2-12.13,2.75c-5.63,6.16-1.92,10.01-1.92,10.01c-0.11-0.04-1.14-0.31-1.37-0.7
		c-0.23-0.38-0.28-0.62-0.67-1.78c-0.63-2.32-1.19-5.83,3.04-9.6c3.44-3.06,9.85-2.4,11.04-2.46c0.48-0.06,1.42,0.18,1.69,0.57
		C209.62,67.39,209.89,67.8,209.67,68.2z"/>
	<path class="st16" d="M209.67,68.2c0,0-7.79-2-12.13,2.75c-5.63,6.16-1.21,10.49-1.21,10.49c-0.11-0.04-1.19-0.42-1.43-0.81
		c-0.23-0.38-0.09-0.24-0.48-1.4c-0.63-2.32-1.19-5.83,3.04-9.6c3.44-3.06,9.85-2.4,11.04-2.46c0.64,0.22,0.62,0.01,1.09,0.34
		C209.98,67.8,209.89,67.8,209.67,68.2z"/>
	<polygon class="st0" points="169.17,48.6 163.07,50 155.64,53.91 147.46,59.75 145.02,62.49 142.35,65.9 139.92,66.21 
		140.37,63.16 143.26,58.85 149.13,53.08 158.14,48.05 165.8,46.62 172.1,46.19 	"/>
	<polygon class="st0" points="137.94,117.82 134.47,117.36 130.2,115.91 126.85,111.73 127.15,114.88 129.32,117.86 133.18,119.32 
		138.08,119.92 141.58,117.77 	"/>
	<polygon class="st0" points="182.01,46.35 179.86,45.21 180.9,48.03 183.62,50.87 187.38,56.71 190.05,60.87 188.14,54.79 
		186.62,50.76 184.64,47.93 	"/>
	<g>
		<path class="st18" d="M190,97.92c0.06-0.89,0.97-1.35,1.31-1.55c0.91-0.52,1.71-0.48,2.55-0.43c0.92,0.06,2.97,0.13,4.69,1.72
			c0.27,0.25,0.97,0.94,1.49,2.05c0.52,1.11,0.61,2.07,0.63,2.42l3.96-0.8l2.62-2.05l1.42-0.69c0.26-1.48-3.67-6.5-4.88-7.94
			c-1.64-1.95-7.18-4.38-9.32-4.89c-2.45-0.59-8.48-0.18-11.48,1.42l-3.41,2.35l-1.55,1.83l-0.88,1.36l-1.49,3.63l0.48,4.76
			c0.43-0.7,1.45-2.14,3.34-3.17c1.66-0.9,3.2-1.06,4.01-1.09c-0.79,0.27-2.18,0.88-3.45,2.21c-0.8,0.84-1.28,1.69-1.57,2.32
			c0.41-0.34,0.88-0.7,1.42-1.04c1.07-0.69,2.1-1.15,2.96-1.46c-0.9,0.58-2.04,1.48-3.04,2.83c-0.35,0.47-0.63,0.92-0.87,1.35
			c0.51-0.52,1.13-1.07,1.87-1.6c1.63-1.17,3.22-1.8,4.42-2.15c-0.38,0.15-1.11,0.51-1.72,1.28c-0.37,0.47-0.56,0.93-0.67,1.26
			c0.87-0.9,2.29-2.14,4.35-3.04C188.22,98.35,189.19,98.08,190,97.92z"/>
	</g>
	<g>
		<line class="st19" x1="190.54" y1="98.42" x2="190.99" y2="99.16"/>
	</g>
	<g>
		<path class="st20" d="M197.87,97.11c1.33,0.97,1.87,2.25,2.21,3.08c0.25,0.59,0.56,1.36,0.63,2.42c0.03,0.47,0.08,1.66-0.53,2.95
			c-0.28,0.6-0.58,0.95-1.1,1.56c-1.4,1.63-2.95,2.69-3.23,2.85c-2.52,1.43-2.52,1.43,0.4,2.05c2.97,0.62,4.84-0.33,9.16-2.19
			c1.76-0.76,1.54-1.69,2.56-3.09c1.11-1.53,0.67-7.21,0.75-7.66c-0.15-0.76-0.37-1.59-0.71-2.48c-1.12-2.88-2.94-4.81-4.21-5.91
			c-0.06,0.52-0.23,1.28-0.67,2.08c-0.9,1.62-2.34,2.33-2.89,2.56c0.32-0.36,0.82-1.01,1.12-1.95c0.21-0.65,0.25-1.22,0.25-1.64
			c-0.18,0.33-0.39,0.68-0.65,1.03c-1.04,1.43-2.31,2.3-3.26,2.81c0.39-0.44,0.91-1.14,1.32-2.1c0.43-1.03,0.55-1.96,0.57-2.56
			c-0.27,0.75-0.68,1.69-1.33,2.68c-0.77,1.18-1.6,2.03-2.27,2.61C196.45,96.33,197.15,96.58,197.87,97.11z"/>
	</g>
	<path class="st4" d="M318.39,187.16"/>
	<polygon class="st3" points="317.15,100.32 321.41,94.02 327.91,93.12 333.28,95.23 332.05,102.3 334.82,106.33 329.18,110.25 
		322.03,111.24 	"/>
	<path class="st21" d="M181.15,222.95c2.53-3.66,5.45-7.34,8.82-10.95c0.5-0.54,1-1.06,1.5-1.58c6.63,6.36,12.43,10.6,16.75,13.41
		c2.27,1.48,3.95,2.44,4.58,4.31c0.85,2.52-0.79,5.01-10.56,14.29c-9,8.55-11.18,9.82-13.02,8.99c-2.46-1.11-2.97-5.36-3.12-6.58
		c-0.85-6.98,4.5-11.43,5.41-12.16C188.06,229.44,184.6,226.19,181.15,222.95z"/>
	<path class="st21" d="M320.94,204.4c3.72-2.44,7.81-4.75,12.29-6.83c0.66-0.31,1.33-0.61,1.99-0.89
		c3.75,8.38,7.53,14.5,10.48,18.73c1.55,2.22,2.75,3.75,2.63,5.71c-0.16,2.65-2.61,4.35-15.16,9.27
		c-11.56,4.54-14.05,4.9-15.45,3.43c-1.86-1.95-0.74-6.08-0.42-7.27c1.84-6.79,8.47-8.9,9.59-9.23
		C324.91,213.01,322.93,208.7,320.94,204.4z"/>
	<polygon class="st0" points="264.2,64.73 274.72,63.27 285.02,63.21 296.44,65.31 301.99,69.94 302.72,75.18 296.08,70.77 
		278.92,66.17 	"/>
</g>
<g>
	<polygon class="st5" points="126.91,187.43 71.5,177.33 52.05,136.14 111.68,146.7 	"/>
	<polygon class="st0" points="122.72,184.06 76.02,175.54 59.62,140.82 109.88,149.73 	"/>
	<polygon class="st22" points="71.5,177.33 93.86,165.18 152.48,175.17 126.91,187.43 	"/>
</g>
<text transform="matrix(0.9194 0 0 1 129.2194 283.1222)" class="st0 st23 st24">HACKNC 2019</text>
</svg>
